<?xml version="1.0" encoding="UTF-8"?>
<!DOCTYPE svg PUBLIC "-//W3C//DTD SVG 1.1//EN" "http://www.w3.org/Graphics/SVG/1.1/DTD/svg11.dtd">
<svg xmlns="http://www.w3.org/2000/svg" version="1.1" width="300px" height="300px" style="shape-rendering:geometricPrecision; text-rendering:geometricPrecision; image-rendering:optimizeQuality; fill-rule:evenodd; clip-rule:evenodd" xmlns:xlink="http://www.w3.org/1999/xlink">
<g><path style="opacity:0.708" fill="#ba323c" d="M 171.5,28.5 C 157.167,28.5 142.833,28.5 128.5,28.5C 142.832,25.8702 157.165,25.8702 171.5,28.5 Z"/></g>
<g><path style="opacity:0.565" fill="#b2333d" d="M 171.5,28.5 C 176.975,29.0355 182.308,30.2022 187.5,32C 190.281,32.5218 192.615,33.6885 194.5,35.5C 187.237,33.4373 179.903,31.604 172.5,30C 171.944,29.6174 171.611,29.1174 171.5,28.5 Z"/></g>
<g><path style="opacity:0.518" fill="#ba2b3d" d="M 128.5,28.5 C 124.983,30.4679 120.983,31.4679 116.5,31.5C 120.076,29.2724 124.076,28.2724 128.5,28.5 Z"/></g>
<g><path style="opacity:1" fill="#e93138" d="M 128.5,28.5 C 142.833,28.5 157.167,28.5 171.5,28.5C 171.611,29.1174 171.944,29.6174 172.5,30C 179.903,31.604 187.237,33.4373 194.5,35.5C 194.369,36.3764 194.702,37.0431 195.5,37.5C 203.113,40.3081 210.446,43.6415 217.5,47.5C 219.666,51.0277 222.499,54.0277 226,56.5C 226.483,57.448 226.649,58.448 226.5,59.5C 229.525,59.231 232.192,60.0643 234.5,62C 235.006,64.0436 235.339,66.0436 235.5,68C 236.5,69.5 237.5,71 238.5,72.5C 240.167,70.8333 241.167,71.1667 241.5,73.5C 241.061,75.1043 240.394,76.6043 239.5,78C 242.457,80.1842 242.123,81.3508 238.5,81.5C 238.657,80.1266 238.49,78.7932 238,77.5C 237.667,77.8333 237.333,78.1667 237,78.5C 235.149,75.1539 232.316,73.1539 228.5,72.5C 227.85,70.5648 227.517,68.5648 227.5,66.5C 226.448,66.6495 225.448,66.4828 224.5,66C 225.293,64.9148 225.96,63.7481 226.5,62.5C 223.212,61.5547 219.879,60.888 216.5,60.5C 216.5,58.8333 216.5,57.1667 216.5,55.5C 212.476,55.262 208.81,54.262 205.5,52.5C 205.67,51.1779 205.337,50.0113 204.5,49C 205.448,48.5172 206.448,48.3505 207.5,48.5C 207.5,47.5 207.5,46.5 207.5,45.5C 204.689,45.5713 202.022,46.238 199.5,47.5C 194.518,46.3372 189.518,45.3372 184.5,44.5C 180.291,41.7683 175.625,39.935 170.5,39C 153.407,37.8969 136.407,38.5635 119.5,41C 118.956,41.7172 118.289,42.2172 117.5,42.5C 113.288,43.6537 109.288,43.3204 105.5,41.5C 104.833,41.8333 104.167,42.1667 103.5,42.5C 104.325,43.3857 105.325,43.719 106.5,43.5C 106.5,44.5 106.5,45.5 106.5,46.5C 104.085,46.3735 101.751,46.2068 99.5,46C 97.6736,49.3243 95.007,51.8243 91.5,53.5C 90.6143,54.325 90.281,55.325 90.5,56.5C 89.609,57.1098 88.609,57.4431 87.5,57.5C 85.351,54.6659 84.351,54.9993 84.5,58.5C 81.4648,59.2909 78.4648,60.2909 75.5,61.5C 73.853,60.7224 72.5196,59.5557 71.5,58C 73.7337,56.3621 75.067,54.1955 75.5,51.5C 87.6822,41.9094 101.349,35.2428 116.5,31.5C 120.983,31.4679 124.983,30.4679 128.5,28.5 Z"/></g>
<g><path style="opacity:0.631" fill="#ba3139" d="M 194.5,35.5 C 203.101,37.7821 210.768,41.7821 217.5,47.5C 210.446,43.6415 203.113,40.3081 195.5,37.5C 194.702,37.0431 194.369,36.3764 194.5,35.5 Z"/></g>
<g><path style="opacity:0.039" fill="#b93139" d="M 184.5,44.5 C 162.267,38.2777 139.934,37.9443 117.5,43.5C 117.5,43.1667 117.5,42.8333 117.5,42.5C 118.289,42.2172 118.956,41.7172 119.5,41C 136.407,38.5635 153.407,37.8969 170.5,39C 175.625,39.935 180.291,41.7683 184.5,44.5 Z"/></g>
<g><path style="opacity:1" fill="#d13038" d="M 117.5,42.5 C 117.5,42.8333 117.5,43.1667 117.5,43.5C 108.137,47.0142 99.1374,51.3475 90.5,56.5C 90.281,55.325 90.6143,54.325 91.5,53.5C 95.007,51.8243 97.6736,49.3243 99.5,46C 101.751,46.2068 104.085,46.3735 106.5,46.5C 106.5,45.5 106.5,44.5 106.5,43.5C 105.325,43.719 104.325,43.3857 103.5,42.5C 104.167,42.1667 104.833,41.8333 105.5,41.5C 109.288,43.3204 113.288,43.6537 117.5,42.5 Z"/></g>
<g><path style="opacity:1" fill="#d43139" d="M 184.5,44.5 C 189.518,45.3372 194.518,46.3372 199.5,47.5C 202.022,46.238 204.689,45.5713 207.5,45.5C 207.5,46.5 207.5,47.5 207.5,48.5C 206.448,48.3505 205.448,48.5172 204.5,49C 205.337,50.0113 205.67,51.1779 205.5,52.5C 208.81,54.262 212.476,55.262 216.5,55.5C 216.5,57.1667 216.5,58.8333 216.5,60.5C 219.879,60.888 223.212,61.5547 226.5,62.5C 225.96,63.7481 225.293,64.9148 224.5,66C 225.448,66.4828 226.448,66.6495 227.5,66.5C 227.517,68.5648 227.85,70.5648 228.5,72.5C 215.762,60.1312 201.095,50.7979 184.5,44.5 Z"/></g>
<g><path style="opacity:1" fill="#d22e36" d="M 142.5,53.5 C 147.032,53.1818 151.366,53.5151 155.5,54.5C 151.528,55.1082 147.528,55.6082 143.5,56C 142.027,56.7096 141.36,57.8762 141.5,59.5C 139.723,59.2137 138.056,58.5471 136.5,57.5C 133.279,58.05 130.279,59.05 127.5,60.5C 131.615,56.4527 136.615,54.1194 142.5,53.5 Z"/></g>
<g><path style="opacity:0.573" fill="#b82d3c" d="M 142.5,53.5 C 153.549,51.0947 163.549,53.428 172.5,60.5C 166.697,58.7592 161.03,56.7592 155.5,54.5C 151.366,53.5151 147.032,53.1818 142.5,53.5 Z"/></g>
<g><path style="opacity:1" fill="#ec3139" d="M 155.5,54.5 C 161.03,56.7592 166.697,58.7592 172.5,60.5C 174.378,64.7178 177.378,68.0512 181.5,70.5C 183.008,72.1815 184.008,74.1815 184.5,76.5C 186.324,83.3632 186.824,90.3632 186,97.5C 184.179,99.1458 183.013,101.146 182.5,103.5C 178.404,105.37 176.737,108.37 177.5,112.5C 174.684,113.018 172.018,113.851 169.5,115C 170.552,116.716 169.886,117.716 167.5,118C 169.107,119.049 169.773,120.549 169.5,122.5C 165.963,122.942 162.63,123.942 159.5,125.5C 159.673,139.679 160.34,153.679 161.5,167.5C 161.833,167.5 162.167,167.5 162.5,167.5C 162.047,168.458 161.381,169.292 160.5,170C 162.447,170.991 164.447,171.325 166.5,171C 165.269,169.817 165.269,168.651 166.5,167.5C 167.167,167.833 167.833,168.167 168.5,168.5C 171.392,167.606 174.059,166.272 176.5,164.5C 177.614,165.723 177.781,167.056 177,168.5C 175.989,167.663 174.822,167.33 173.5,167.5C 173.343,168.873 173.51,170.207 174,171.5C 174.667,172.833 175.333,172.833 176,171.5C 178.081,173.324 177.915,174.991 175.5,176.5C 176.391,177.59 177.391,177.59 178.5,176.5C 179.705,177.577 180.372,178.91 180.5,180.5C 177.205,179.176 175.872,180.509 176.5,184.5C 176.167,185.5 175.5,186.167 174.5,186.5C 170.944,189.011 166.944,190.677 162.5,191.5C 161.749,192.376 161.249,193.376 161,194.5C 160.501,198.821 160.334,203.154 160.5,207.5C 159.504,222.658 159.17,237.991 159.5,253.5C 153.491,253.666 147.491,253.499 141.5,253C 140.874,252.25 140.374,251.416 140,250.5C 139.667,236.167 139.333,221.833 139,207.5C 138.834,202.007 138.001,196.673 136.5,191.5C 133.5,191.833 132.167,190.5 132.5,187.5C 130.5,187.5 128.5,187.5 126.5,187.5C 125.434,185.299 124.767,182.965 124.5,180.5C 121.966,180.741 120.3,179.741 119.5,177.5C 120.338,177.158 120.672,176.492 120.5,175.5C 121.423,176.303 122.423,176.47 123.5,176C 123.295,174.324 124.128,172.824 126,171.5C 126.333,172.5 126.667,173.5 127,174.5C 128.53,172.774 129.53,170.774 130,168.5C 132.465,170.425 135.132,170.425 138,168.5C 138.827,154.994 138.66,141.66 137.5,128.5C 137.5,128.167 137.5,127.833 137.5,127.5C 132.37,124.43 127.37,121.096 122.5,117.5C 119.353,115.687 117.353,113.02 116.5,109.5C 111.003,93.2983 113.003,78.2983 122.5,64.5C 123.585,62.4131 125.251,61.0798 127.5,60.5C 130.279,59.05 133.279,58.05 136.5,57.5C 138.056,58.5471 139.723,59.2137 141.5,59.5C 141.36,57.8762 142.027,56.7096 143.5,56C 147.528,55.6082 151.528,55.1082 155.5,54.5 Z"/></g>
<g><path style="opacity:1" fill="#da3337" d="M 75.5,51.5 C 75.067,54.1955 73.7337,56.3621 71.5,58C 72.5196,59.5557 73.853,60.7224 75.5,61.5C 78.4648,60.2909 81.4648,59.2909 84.5,58.5C 84.351,54.9993 85.351,54.6659 87.5,57.5C 85.1997,59.984 82.5331,61.984 79.5,63.5C 78.1667,63.5 76.8333,63.5 75.5,63.5C 75.2407,67.0681 73.2407,68.4015 69.5,67.5C 70.6085,66.71 71.9419,66.21 73.5,66C 71.4078,65.0475 71.0745,63.7141 72.5,62C 71.5,61.5 70.5,61 69.5,60.5C 67.7095,62.4597 65.5428,63.793 63,64.5C 61.5,67.3333 60,70.1667 58.5,73C 56.5106,73.5192 55.5106,72.6859 55.5,70.5C 61.5352,63.4639 68.2018,57.1305 75.5,51.5 Z"/></g>
<g><path style="opacity:0.549" fill="#b5313b" d="M 172.5,60.5 C 176.234,63.2311 179.234,66.5644 181.5,70.5C 177.378,68.0512 174.378,64.7178 172.5,60.5 Z"/></g>
<g><path style="opacity:0.463" fill="#bd363b" d="M 238.5,64.5 C 241.645,67.4595 244.312,70.7929 246.5,74.5C 242.62,71.9731 239.954,68.6397 238.5,64.5 Z"/></g>
<g><path style="opacity:1" fill="#da3039" d="M 217.5,47.5 C 218.922,47.7086 220.255,48.2086 221.5,49C 227.619,53.7167 233.285,58.8833 238.5,64.5C 239.954,68.6397 242.62,71.9731 246.5,74.5C 252.779,81.1279 257.445,88.7946 260.5,97.5C 258.946,96.0858 257.612,94.4192 256.5,92.5C 255.675,91.6143 254.675,91.281 253.5,91.5C 253.236,88.2429 251.57,86.2429 248.5,85.5C 248.5,84.5 248.5,83.5 248.5,82.5C 246.401,81.7691 244.401,81.7691 242.5,82.5C 245.571,86.306 247.238,90.6393 247.5,95.5C 249.103,95.3118 250.437,95.8118 251.5,97C 250.883,99.277 250.216,101.444 249.5,103.5C 244.244,91.9896 237.244,81.6563 228.5,72.5C 232.316,73.1539 235.149,75.1539 237,78.5C 237.333,78.1667 237.667,77.8333 238,77.5C 238.49,78.7932 238.657,80.1266 238.5,81.5C 242.123,81.3508 242.457,80.1842 239.5,78C 240.394,76.6043 241.061,75.1043 241.5,73.5C 241.167,71.1667 240.167,70.8333 238.5,72.5C 237.5,71 236.5,69.5 235.5,68C 235.339,66.0436 235.006,64.0436 234.5,62C 232.192,60.0643 229.525,59.231 226.5,59.5C 226.649,58.448 226.483,57.448 226,56.5C 222.499,54.0277 219.666,51.0277 217.5,47.5 Z"/></g>
<g><path style="opacity:1" fill="#c23039" d="M 122.5,64.5 C 113.003,78.2983 111.003,93.2983 116.5,109.5C 114.503,106.84 113.003,103.84 112,100.5C 109.012,86.4258 112.512,74.4258 122.5,64.5 Z"/></g>
<g><path style="opacity:1" fill="#cb2f37" d="M 79.5,63.5 C 63.1625,78.1824 51.3292,95.849 44,116.5C 42.3828,122.086 41.2162,127.753 40.5,133.5C 39.8826,133.611 39.3826,133.944 39,134.5C 38.3333,144.167 38.3333,153.833 39,163.5C 39.21,165.058 39.71,166.391 40.5,167.5C 42.123,174.955 44.123,182.288 46.5,189.5C 45.0378,188.199 43.7044,186.699 42.5,185C 39.9368,177.873 38.2702,170.539 37.5,163C 37.2451,161.674 36.5784,160.674 35.5,160C 35.9558,148.448 37.2892,136.948 39.5,125.5C 39.1667,124.167 38.8333,122.833 38.5,121.5C 44.4072,111.015 49.2405,100.015 53,88.5C 54.0113,87.6634 55.1779,87.33 56.5,87.5C 56.8333,85.5 57.1667,83.5 57.5,81.5C 62.1855,80.1479 65.1855,77.1479 66.5,72.5C 67.5,72.5 68.5,72.5 69.5,72.5C 69.5,70.8333 69.5,69.1667 69.5,67.5C 73.2407,68.4015 75.2407,67.0681 75.5,63.5C 76.8333,63.5 78.1667,63.5 79.5,63.5 Z"/></g>
<g><path style="opacity:0.753" fill="#be343a" d="M 44.5,86.5 C 43.4464,92.5043 40.7797,97.5043 36.5,101.5C 38.4068,96.0157 41.0734,91.0157 44.5,86.5 Z"/></g>
<g><path style="opacity:1" fill="#c5303b" d="M 184.5,76.5 C 185.927,78.1484 186.76,80.1484 187,82.5C 189.881,95.1311 187.047,106.131 178.5,115.5C 179.105,112.873 179.605,110.207 180,107.5C 180.667,106.167 181.333,106.167 182,107.5C 182.49,106.207 182.657,104.873 182.5,103.5C 183.013,101.146 184.179,99.1458 186,97.5C 186.824,90.3632 186.324,83.3632 184.5,76.5 Z"/></g>
<g><path style="opacity:0.878" fill="#be3139" d="M 213.5,102.5 C 213.389,103.117 213.056,103.617 212.5,104C 208.344,104.185 204.344,105.018 200.5,106.5C 199.584,106.457 198.917,106.124 198.5,105.5C 203.256,103.395 208.256,102.395 213.5,102.5 Z"/></g>
<g><path style="opacity:0.737" fill="#b9333a" d="M 217.5,102.5 C 221.458,102.251 225.124,102.918 228.5,104.5C 224.351,105.08 220.684,104.414 217.5,102.5 Z"/></g>
<g><path style="opacity:0.99" fill="#c6323d" d="M 112.5,115.5 C 108.587,112.098 104.253,109.265 99.5,107C 90.2923,104.877 80.959,104.044 71.5,104.5C 87.5459,99.2616 101.213,102.928 112.5,115.5 Z"/></g>
<g><path style="opacity:1" fill="#ec3239" d="M 71.5,104.5 C 80.959,104.044 90.2923,104.877 99.5,107C 104.253,109.265 108.587,112.098 112.5,115.5C 113.99,119.996 115.657,124.496 117.5,129C 116.223,130.888 115.223,132.888 114.5,135C 116.108,135.658 117.275,135.158 118,133.5C 119.201,136.165 120.035,138.998 120.5,142C 118.965,146.405 118.465,150.905 119,155.5C 120.022,156.354 120.855,157.354 121.5,158.5C 121.477,161.018 121.144,163.684 120.5,166.5C 121.552,166.351 122.552,166.517 123.5,167C 122.576,167.85 122.576,168.85 123.5,170C 122.495,171.672 121.161,173.005 119.5,174C 120.056,174.383 120.389,174.883 120.5,175.5C 120.672,176.492 120.338,177.158 119.5,177.5C 114.733,176.293 111.4,173.459 109.5,169C 106.489,166.951 103.656,167.117 101,169.5C 100.36,171.265 100.527,172.932 101.5,174.5C 101.5,175.167 101.167,175.5 100.5,175.5C 99.9032,174.861 99.0698,174.528 98,174.5C 96.6244,174.684 95.7911,175.351 95.5,176.5C 91.966,178.048 88.1327,178.714 84,178.5C 79.8673,178.714 76.034,178.048 72.5,176.5C 73.2625,175.732 74.2625,175.232 75.5,175C 73.4127,174.208 71.5793,173.041 70,171.5C 68.2302,172.276 66.3969,172.11 64.5,171C 63.4829,169.951 63.3162,168.784 64,167.5C 66.2598,167.327 68.5931,167.327 71,167.5C 71.4497,165.481 72.283,163.648 73.5,162C 69.9148,162.411 66.5815,163.578 63.5,165.5C 62.7325,161.861 62.0658,162.194 61.5,166.5C 60.325,166.719 59.325,166.386 58.5,165.5C 55.4392,162.007 52.1058,159.007 48.5,156.5C 48.1667,155.833 47.8333,155.167 47.5,154.5C 47.4718,145.323 47.8052,135.99 48.5,126.5C 50.0931,125.652 51.2597,124.319 52,122.5C 52.4828,121.552 52.6495,120.552 52.5,119.5C 54.1667,119.5 55.8333,119.5 57.5,119.5C 58.1753,115.152 60.1753,111.485 63.5,108.5C 65.6123,106.229 68.279,104.896 71.5,104.5 Z"/></g>
<g><path style="opacity:0.494" fill="#c03138" d="M 260.5,97.5 C 264.529,104.245 267.195,111.578 268.5,119.5C 267.883,119.611 267.383,119.944 267,120.5C 266.979,115.147 265.312,110.481 262,106.5C 261.304,103.522 260.804,100.522 260.5,97.5 Z"/></g>
<g><path style="opacity:1" fill="#eb3239" d="M 217.5,102.5 C 220.684,104.414 224.351,105.08 228.5,104.5C 234.978,106.333 239.978,109.999 243.5,115.5C 252.036,128.875 253.703,143.209 248.5,158.5C 246.661,159.508 245.328,161.008 244.5,163C 242.797,163.745 241.13,164.579 239.5,165.5C 236.972,164.831 236.972,163.998 239.5,163C 229.479,163.156 229.146,164.822 238.5,168C 236.624,168.918 235.624,170.418 235.5,172.5C 233.473,172.338 231.473,172.505 229.5,173C 229.833,173.333 230.167,173.667 230.5,174C 220.648,176.819 210.648,177.319 200.5,175.5C 197.772,172.606 194.439,171.44 190.5,172C 186.576,174.23 183.242,177.063 180.5,180.5C 180.372,178.91 179.705,177.577 178.5,176.5C 177.391,177.59 176.391,177.59 175.5,176.5C 177.915,174.991 178.081,173.324 176,171.5C 175.333,172.833 174.667,172.833 174,171.5C 173.51,170.207 173.343,168.873 173.5,167.5C 174.822,167.33 175.989,167.663 177,168.5C 177.781,167.056 177.614,165.723 176.5,164.5C 174.059,166.272 171.392,167.606 168.5,168.5C 167.833,168.167 167.167,167.833 166.5,167.5C 165.269,168.651 165.269,169.817 166.5,171C 164.447,171.325 162.447,170.991 160.5,170C 161.381,169.292 162.047,168.458 162.5,167.5C 167.569,163.091 172.902,159.091 178.5,155.5C 178.731,147.362 178.731,139.029 178.5,130.5C 178.232,128.901 178.566,127.568 179.5,126.5C 181.624,125.969 183.124,124.635 184,122.5C 184.49,121.207 184.657,119.873 184.5,118.5C 187.864,112.804 192.531,108.47 198.5,105.5C 198.917,106.124 199.584,106.457 200.5,106.5C 204.344,105.018 208.344,104.185 212.5,104C 213.056,103.617 213.389,103.117 213.5,102.5C 214.705,101.314 216.039,101.314 217.5,102.5 Z"/></g>
<g><path style="opacity:1" fill="#c72e36" d="M 258.5,129.5 C 256.53,121.849 254.197,114.182 251.5,106.5C 252.329,105.668 253.162,106.001 254,107.5C 256.763,114.554 258.263,121.887 258.5,129.5 Z"/></g>
<g><path style="opacity:1" fill="#d63339" d="M 182.5,103.5 C 182.657,104.873 182.49,106.207 182,107.5C 181.333,106.167 180.667,106.167 180,107.5C 179.605,110.207 179.105,112.873 178.5,115.5C 174.627,121.364 169.293,125.364 162.5,127.5C 161.501,140.817 161.167,154.15 161.5,167.5C 160.34,153.679 159.673,139.679 159.5,125.5C 162.63,123.942 165.963,122.942 169.5,122.5C 169.773,120.549 169.107,119.049 167.5,118C 169.886,117.716 170.552,116.716 169.5,115C 172.018,113.851 174.684,113.018 177.5,112.5C 176.737,108.37 178.404,105.37 182.5,103.5 Z"/></g>
<g><path style="opacity:1" fill="#cc333b" d="M 63.5,108.5 C 60.1753,111.485 58.1753,115.152 57.5,119.5C 55.8333,119.5 54.1667,119.5 52.5,119.5C 52.6495,120.552 52.4828,121.552 52,122.5C 51.2597,124.319 50.0931,125.652 48.5,126.5C 51.3597,118.647 56.3597,112.647 63.5,108.5 Z"/></g>
<g><path style="opacity:0.471" fill="#bb343b" d="M 122.5,117.5 C 127.37,121.096 132.37,124.43 137.5,127.5C 131.321,125.912 126.321,122.579 122.5,117.5 Z"/></g>
<g><path style="opacity:0.875" fill="#c3323d" d="M 184.5,118.5 C 184.657,119.873 184.49,121.207 184,122.5C 183.124,124.635 181.624,125.969 179.5,126.5C 180.379,123.299 182.045,120.632 184.5,118.5 Z"/></g>
<g><path style="opacity:1" fill="#bd3038" d="M 36.5,102.5 C 35.5013,106.142 34.3347,109.809 33,113.5C 32.954,119.861 31.6207,125.861 29,131.5C 27.4248,149.263 28.5914,166.763 32.5,184C 32.472,185.07 32.1386,185.903 31.5,186.5C 24.6692,161.789 24.8359,137.123 32,112.5C 32.8445,108.771 34.3445,105.437 36.5,102.5 Z"/></g>
<g><path style="opacity:0.742" fill="#c4313b" d="M 243.5,115.5 C 249.215,120.431 252.382,126.764 253,134.5C 254.034,142.427 253.034,150.094 250,157.5C 249.617,158.056 249.117,158.389 248.5,158.5C 253.703,143.209 252.036,128.875 243.5,115.5 Z"/></g>
<g><path style="opacity:0.702" fill="#ca303a" d="M 48.5,126.5 C 47.8052,135.99 47.4718,145.323 47.5,154.5C 44.5265,144.917 44.8599,135.584 48.5,126.5 Z"/></g>
<g><path style="opacity:1" fill="#e93139" d="M 260.5,97.5 C 260.804,100.522 261.304,103.522 262,106.5C 265.312,110.481 266.979,115.147 267,120.5C 267.383,119.944 267.883,119.611 268.5,119.5C 270.217,122.845 270.884,126.511 270.5,130.5C 270.834,146.565 270.001,162.565 268,178.5C 267.317,181.383 266.15,184.05 264.5,186.5C 264.453,188.038 265.12,189.038 266.5,189.5C 266.5,190.167 266.167,190.5 265.5,190.5C 263.157,192.441 261.157,194.774 259.5,197.5C 257.833,198.167 256.167,198.833 254.5,199.5C 254.938,200.506 255.604,200.506 256.5,199.5C 257.626,201.506 256.96,202.84 254.5,203.5C 253.833,202.5 253.167,201.5 252.5,200.5C 251.391,201.59 250.391,201.59 249.5,200.5C 250.747,197.671 252.247,195.005 254,192.5C 255,191.167 256,191.167 257,192.5C 257.227,189.94 258.56,188.274 261,187.5C 261.533,183.147 261.199,182.814 260,186.5C 258.676,180.907 258.51,175.24 259.5,169.5C 260.028,162.684 260.362,155.851 260.5,149C 260.72,142.254 260.054,135.754 258.5,129.5C 258.263,121.887 256.763,114.554 254,107.5C 253.162,106.001 252.329,105.668 251.5,106.5C 250.599,105.71 249.932,104.71 249.5,103.5C 250.216,101.444 250.883,99.277 251.5,97C 250.437,95.8118 249.103,95.3118 247.5,95.5C 247.238,90.6393 245.571,86.306 242.5,82.5C 244.401,81.7691 246.401,81.7691 248.5,82.5C 248.5,83.5 248.5,84.5 248.5,85.5C 251.57,86.2429 253.236,88.2429 253.5,91.5C 254.675,91.281 255.675,91.6143 256.5,92.5C 257.612,94.4192 258.946,96.0858 260.5,97.5 Z"/></g>
<g><path style="opacity:0.716" fill="#ba2f38" d="M 270.5,130.5 C 273.755,150.332 272.421,169.999 266.5,189.5C 265.12,189.038 264.453,188.038 264.5,186.5C 266.15,184.05 267.317,181.383 268,178.5C 270.001,162.565 270.834,146.565 270.5,130.5 Z"/></g>
<g><path style="opacity:0.341" fill="#af2f37" d="M 178.5,130.5 C 178.731,139.029 178.731,147.362 178.5,155.5C 177.756,150.686 177.089,145.852 176.5,141C 176.486,137.24 177.153,133.74 178.5,130.5 Z"/></g>
<g><path style="opacity:0.039" fill="#ab3436" d="M 40.5,133.5 C 39.239,144.81 39.239,156.143 40.5,167.5C 39.71,166.391 39.21,165.058 39,163.5C 38.3333,153.833 38.3333,144.167 39,134.5C 39.3826,133.944 39.8826,133.611 40.5,133.5 Z"/></g>
<g><path style="opacity:1" fill="#da3239" d="M 112.5,115.5 C 122.021,126.43 124.688,138.93 120.5,153C 125.297,158.291 130.63,163.124 136.5,167.5C 137.499,154.517 137.832,141.517 137.5,128.5C 138.66,141.66 138.827,154.994 138,168.5C 135.132,170.425 132.465,170.425 130,168.5C 129.53,170.774 128.53,172.774 127,174.5C 126.667,173.5 126.333,172.5 126,171.5C 124.128,172.824 123.295,174.324 123.5,176C 122.423,176.47 121.423,176.303 120.5,175.5C 120.389,174.883 120.056,174.383 119.5,174C 121.161,173.005 122.495,171.672 123.5,170C 122.576,168.85 122.576,167.85 123.5,167C 122.552,166.517 121.552,166.351 120.5,166.5C 121.144,163.684 121.477,161.018 121.5,158.5C 120.855,157.354 120.022,156.354 119,155.5C 118.465,150.905 118.965,146.405 120.5,142C 120.035,138.998 119.201,136.165 118,133.5C 117.275,135.158 116.108,135.658 114.5,135C 115.223,132.888 116.223,130.888 117.5,129C 115.657,124.496 113.99,119.996 112.5,115.5 Z"/></g>
<g><path style="opacity:0.118" fill="#ad3239" d="M 258.5,129.5 C 260.054,135.754 260.72,142.254 260.5,149C 260.362,155.851 260.028,162.684 259.5,169.5C 259.167,169.5 258.833,169.5 258.5,169.5C 259.833,156.167 259.833,142.833 258.5,129.5 Z"/></g>
<g><path style="opacity:1" fill="#db3039" d="M 48.5,156.5 C 52.1058,159.007 55.4392,162.007 58.5,165.5C 59.325,166.386 60.325,166.719 61.5,166.5C 62.0658,162.194 62.7325,161.861 63.5,165.5C 66.5815,163.578 69.9148,162.411 73.5,162C 72.283,163.648 71.4497,165.481 71,167.5C 68.5931,167.327 66.2598,167.327 64,167.5C 63.3162,168.784 63.4829,169.951 64.5,171C 66.3969,172.11 68.2302,172.276 70,171.5C 71.5793,173.041 73.4127,174.208 75.5,175C 74.2625,175.232 73.2625,175.732 72.5,176.5C 67.2204,175.694 62.5537,173.527 58.5,170C 54.5637,165.904 51.2304,161.404 48.5,156.5 Z"/></g>
<g><path style="opacity:1" fill="#d83239" d="M 248.5,158.5 C 245.978,164.897 241.645,169.564 235.5,172.5C 235.624,170.418 236.624,168.918 238.5,168C 229.146,164.822 229.479,163.156 239.5,163C 236.972,163.998 236.972,164.831 239.5,165.5C 241.13,164.579 242.797,163.745 244.5,163C 245.328,161.008 246.661,159.508 248.5,158.5 Z"/></g>
<g><path style="opacity:0.173" fill="#b5333c" d="M 100.5,175.5 C 98.8828,176.038 97.2161,176.371 95.5,176.5C 95.7911,175.351 96.6244,174.684 98,174.5C 99.0698,174.528 99.9032,174.861 100.5,175.5 Z"/></g>
<g><path style="opacity:0.831" fill="#ba303a" d="M 235.5,172.5 C 232.176,175.564 228.176,177.397 223.5,178C 217.833,178.667 212.167,178.667 206.5,178C 204.277,177.434 202.277,176.6 200.5,175.5C 210.648,177.319 220.648,176.819 230.5,174C 230.167,173.667 229.833,173.333 229.5,173C 231.473,172.505 233.473,172.338 235.5,172.5 Z"/></g>
<g><path style="opacity:0.796" fill="#c02d35" d="M 200.5,175.5 C 197.821,175.327 195.487,174.327 193.5,172.5C 187.98,176.756 182.313,180.756 176.5,184.5C 175.872,180.509 177.205,179.176 180.5,180.5C 183.242,177.063 186.576,174.23 190.5,172C 194.439,171.44 197.772,172.606 200.5,175.5 Z"/></g>
<g><path style="opacity:1" fill="#d73039" d="M 119.5,177.5 C 120.3,179.741 121.966,180.741 124.5,180.5C 124.767,182.965 125.434,185.299 126.5,187.5C 119.507,183.655 113.174,178.821 107.5,173C 105.311,172.678 103.311,173.178 101.5,174.5C 100.527,172.932 100.36,171.265 101,169.5C 103.656,167.117 106.489,166.951 109.5,169C 111.4,173.459 114.733,176.293 119.5,177.5 Z"/></g>
<g><path style="opacity:1" fill="#d5313a" d="M 258.5,169.5 C 258.833,169.5 259.167,169.5 259.5,169.5C 258.51,175.24 258.676,180.907 260,186.5C 261.199,182.814 261.533,183.147 261,187.5C 258.56,188.274 257.227,189.94 257,192.5C 256,191.167 255,191.167 254,192.5C 252.247,195.005 250.747,197.671 249.5,200.5C 250.391,201.59 251.391,201.59 252.5,200.5C 253.167,201.5 253.833,202.5 254.5,203.5C 256.96,202.84 257.626,201.506 256.5,199.5C 255.604,200.506 254.938,200.506 254.5,199.5C 256.167,198.833 257.833,198.167 259.5,197.5C 261.157,194.774 263.157,192.441 265.5,190.5C 261.628,203.331 255.295,214.665 246.5,224.5C 246.5,222.833 246.5,221.167 246.5,219.5C 247.5,219.5 248.5,219.5 249.5,219.5C 250.38,216.343 251.713,213.343 253.5,210.5C 252.03,208.518 252.364,206.852 254.5,205.5C 253.264,204.643 251.931,203.977 250.5,203.5C 248.999,204.752 247.332,205.752 245.5,206.5C 244.94,208.854 244.273,211.187 243.5,213.5C 242.015,212.567 240.682,212.9 239.5,214.5C 243.511,207.641 247.344,200.641 251,193.5C 254.141,185.575 256.641,177.575 258.5,169.5 Z"/></g>
<g><path style="opacity:1" fill="#c13039" d="M 46.5,189.5 C 49.1288,194.758 51.7955,200.091 54.5,205.5C 52.6096,205.703 51.1096,205.037 50,203.5C 48.4413,198.839 47.2746,194.173 46.5,189.5 Z"/></g>
<g><path style="opacity:0.773" fill="#c32d37" d="M 32.5,187.5 C 35.6665,193.472 39.1665,199.472 43,205.5C 43.6172,206.449 43.4506,207.282 42.5,208C 44.392,211.056 46.0587,214.222 47.5,217.5C 40.8218,208.446 35.8218,198.446 32.5,187.5 Z"/></g>
<g><path style="opacity:0.024" fill="#b52e38" d="M 174.5,186.5 C 170.494,189.934 166.328,193.268 162,196.5C 161.832,216.004 161.332,235.338 160.5,254.5C 160.5,238.833 160.5,223.167 160.5,207.5C 160.334,203.154 160.501,198.821 161,194.5C 161.249,193.376 161.749,192.376 162.5,191.5C 166.944,190.677 170.944,189.011 174.5,186.5 Z"/></g>
<g><path style="opacity:1" fill="#eb3238" d="M 246.5,224.5 C 244.616,224.288 243.283,223.288 242.5,221.5C 242.433,223.424 242.1,225.424 241.5,227.5C 239.564,225.022 237.564,225.022 235.5,227.5C 234.5,227 233.5,226.5 232.5,226C 234.464,224.549 235.797,222.716 236.5,220.5C 238.245,218.967 239.245,216.967 239.5,214.5C 240.682,212.9 242.015,212.567 243.5,213.5C 244.273,211.187 244.94,208.854 245.5,206.5C 247.332,205.752 248.999,204.752 250.5,203.5C 251.931,203.977 253.264,204.643 254.5,205.5C 252.364,206.852 252.03,208.518 253.5,210.5C 251.713,213.343 250.38,216.343 249.5,219.5C 248.5,219.5 247.5,219.5 246.5,219.5C 246.5,221.167 246.5,222.833 246.5,224.5 Z"/></g>
<g><path style="opacity:0.412" fill="#b9333b" d="M 239.5,214.5 C 239.245,216.967 238.245,218.967 236.5,220.5C 234.833,221.833 233.167,223.167 231.5,224.5C 233.794,220.873 236.46,217.539 239.5,214.5 Z"/></g>
<g><path style="opacity:1" fill="#c52e38" d="M 57.5,211.5 C 62.7673,218.106 68.434,224.439 74.5,230.5C 71.5607,229.395 68.7274,228.061 66,226.5C 63.6226,221.156 60.7892,216.156 57.5,211.5 Z"/></g>
<g><path style="opacity:0.016" fill="#bb313a" d="M 50.5,222.5 C 51.5832,222.539 52.5832,222.873 53.5,223.5C 55.2111,226.196 56.8777,228.862 58.5,231.5C 55.1195,229.12 52.4528,226.12 50.5,222.5 Z"/></g>
<g><path style="opacity:1" fill="#da3339" d="M 236.5,220.5 C 235.797,222.716 234.464,224.549 232.5,226C 233.5,226.5 234.5,227 235.5,227.5C 237.564,225.022 239.564,225.022 241.5,227.5C 242.1,225.424 242.433,223.424 242.5,221.5C 243.283,223.288 244.616,224.288 246.5,224.5C 239.472,235.187 230.472,243.854 219.5,250.5C 219.92,248.906 220.586,247.406 221.5,246C 221.095,245.055 220.428,244.388 219.5,244C 220.646,243.355 221.646,242.522 222.5,241.5C 223.869,243.124 225.536,243.624 227.5,243C 229.031,240.214 230.364,237.381 231.5,234.5C 232.5,234.5 233.5,234.5 234.5,234.5C 234.421,233.07 234.754,231.736 235.5,230.5C 233.997,229.443 232.33,228.776 230.5,228.5C 227.161,231.833 223.494,234.833 219.5,237.5C 221.167,235.5 222.833,233.5 224.5,231.5C 226.5,228.833 228.833,226.5 231.5,224.5C 233.167,223.167 234.833,221.833 236.5,220.5 Z"/></g>
<g><path style="opacity:0.427" fill="#c72a31" d="M 126.5,187.5 C 128.5,187.5 130.5,187.5 132.5,187.5C 132.167,190.5 133.5,191.833 136.5,191.5C 138.001,196.673 138.834,202.007 139,207.5C 139.333,221.833 139.667,236.167 140,250.5C 140.374,251.416 140.874,252.25 141.5,253C 147.491,253.499 153.491,253.666 159.5,253.5C 159.17,237.991 159.504,222.658 160.5,207.5C 160.5,223.167 160.5,238.833 160.5,254.5C 153.098,255.827 145.598,255.827 138,254.5C 137.667,235.167 137.333,215.833 137,196.5C 133.308,193.635 129.808,190.635 126.5,187.5 Z"/></g>
<g><path style="opacity:1" fill="#c7333a" d="M 219.5,250.5 C 209.477,257.677 198.477,263.011 186.5,266.5C 190.806,264.343 194.806,261.677 198.5,258.5C 205.741,256.269 212.741,253.603 219.5,250.5 Z"/></g>
<g><path style="opacity:1" fill="#cd3137" d="M 91.5,257.5 C 96.5674,258.862 101.567,260.529 106.5,262.5C 107.996,258.665 108.996,258.665 109.5,262.5C 111.861,262.674 114.194,263.007 116.5,263.5C 116.36,265.124 117.027,266.29 118.5,267C 125.82,267.96 132.82,269.46 139.5,271.5C 122.277,270.729 106.277,266.062 91.5,257.5 Z"/></g>
<g><path style="opacity:1" fill="#ea3239" d="M 69.5,67.5 C 69.5,69.1667 69.5,70.8333 69.5,72.5C 68.5,72.5 67.5,72.5 66.5,72.5C 65.1855,77.1479 62.1855,80.1479 57.5,81.5C 57.1667,83.5 56.8333,85.5 56.5,87.5C 55.1779,87.33 54.0113,87.6634 53,88.5C 49.2405,100.015 44.4072,111.015 38.5,121.5C 38.8333,122.833 39.1667,124.167 39.5,125.5C 37.2892,136.948 35.9558,148.448 35.5,160C 36.5784,160.674 37.2451,161.674 37.5,163C 38.2702,170.539 39.9368,177.873 42.5,185C 43.7044,186.699 45.0378,188.199 46.5,189.5C 47.2746,194.173 48.4413,198.839 50,203.5C 51.1096,205.037 52.6096,205.703 54.5,205.5C 56.0075,207.181 57.0075,209.181 57.5,211.5C 60.7892,216.156 63.6226,221.156 66,226.5C 68.7274,228.061 71.5607,229.395 74.5,230.5C 74.7512,232.17 75.4178,233.67 76.5,235C 79.218,236.066 81.5514,237.733 83.5,240C 85.0249,241.009 86.6916,241.509 88.5,241.5C 88.393,243.903 89.393,245.736 91.5,247C 96.2945,248.238 100.961,249.738 105.5,251.5C 107.707,253.515 110.374,254.515 113.5,254.5C 113.5,255.5 113.5,256.5 113.5,257.5C 119.993,258.382 126.493,259.382 133,260.5C 134.376,260.316 135.209,259.649 135.5,258.5C 136.167,258.5 136.5,258.833 136.5,259.5C 147.659,260.659 158.992,260.826 170.5,260C 176.347,258.33 182.347,256.997 188.5,256C 196.226,250.804 204.559,246.637 213.5,243.5C 214.429,242.311 214.762,240.978 214.5,239.5C 216.167,238.833 217.833,238.167 219.5,237.5C 223.494,234.833 227.161,231.833 230.5,228.5C 232.33,228.776 233.997,229.443 235.5,230.5C 234.754,231.736 234.421,233.07 234.5,234.5C 233.5,234.5 232.5,234.5 231.5,234.5C 230.364,237.381 229.031,240.214 227.5,243C 225.536,243.624 223.869,243.124 222.5,241.5C 221.646,242.522 220.646,243.355 219.5,244C 220.428,244.388 221.095,245.055 221.5,246C 220.586,247.406 219.92,248.906 219.5,250.5C 212.741,253.603 205.741,256.269 198.5,258.5C 194.806,261.677 190.806,264.343 186.5,266.5C 171.282,268.861 156.282,270.861 141.5,272.5C 140.833,272.167 140.167,271.833 139.5,271.5C 132.82,269.46 125.82,267.96 118.5,267C 117.027,266.29 116.36,265.124 116.5,263.5C 114.194,263.007 111.861,262.674 109.5,262.5C 108.996,258.665 107.996,258.665 106.5,262.5C 101.567,260.529 96.5674,258.862 91.5,257.5C 78.4541,251.471 67.4541,242.805 58.5,231.5C 56.8777,228.862 55.2111,226.196 53.5,223.5C 52.5832,222.873 51.5832,222.539 50.5,222.5C 49.1103,221.101 48.1103,219.434 47.5,217.5C 46.0587,214.222 44.392,211.056 42.5,208C 43.4506,207.282 43.6172,206.449 43,205.5C 39.1665,199.472 35.6665,193.472 32.5,187.5C 31.8333,187.5 31.5,187.167 31.5,186.5C 32.1386,185.903 32.472,185.07 32.5,184C 28.5914,166.763 27.4248,149.263 29,131.5C 31.6207,125.861 32.954,119.861 33,113.5C 34.3347,109.809 35.5013,106.142 36.5,102.5C 36.5,102.167 36.5,101.833 36.5,101.5C 40.7797,97.5043 43.4464,92.5043 44.5,86.5C 47.3932,80.6117 51.0599,75.2783 55.5,70.5C 55.5106,72.6859 56.5106,73.5192 58.5,73C 60,70.1667 61.5,67.3333 63,64.5C 65.5428,63.793 67.7095,62.4597 69.5,60.5C 70.5,61 71.5,61.5 72.5,62C 71.0745,63.7141 71.4078,65.0475 73.5,66C 71.9419,66.21 70.6085,66.71 69.5,67.5 Z"/></g>
<g><path style="opacity:0.635" fill="#bd2d33" d="M 105.5,251.5 C 115.347,254.475 125.347,256.808 135.5,258.5C 135.209,259.649 134.376,260.316 133,260.5C 126.493,259.382 119.993,258.382 113.5,257.5C 113.5,256.5 113.5,255.5 113.5,254.5C 110.374,254.515 107.707,253.515 105.5,251.5 Z"/></g>
<g><path style="opacity:1" fill="#c22f35" d="M 214.5,239.5 C 214.762,240.978 214.429,242.311 213.5,243.5C 204.559,246.637 196.226,250.804 188.5,256C 182.347,256.997 176.347,258.33 170.5,260C 158.992,260.826 147.659,260.659 136.5,259.5C 164.921,261.562 190.921,254.896 214.5,239.5 Z"/></g>
<g><path style="opacity:0.863" fill="#bd2f36" d="M 88.5,241.5 C 94.07,245.114 99.7367,248.447 105.5,251.5C 100.961,249.738 96.2945,248.238 91.5,247C 89.393,245.736 88.393,243.903 88.5,241.5 Z"/></g>
<g><path style="opacity:0.592" fill="#b52f3e" d="M 224.5,231.5 C 222.833,233.5 221.167,235.5 219.5,237.5C 217.833,238.167 216.167,238.833 214.5,239.5C 217.539,236.46 220.873,233.794 224.5,231.5 Z"/></g>
<g><path style="opacity:0.537" fill="#b52d3f" d="M 74.5,230.5 C 79.1909,234.197 83.8576,237.864 88.5,241.5C 86.6916,241.509 85.0249,241.009 83.5,240C 81.5514,237.733 79.218,236.066 76.5,235C 75.4178,233.67 74.7512,232.17 74.5,230.5 Z"/></g>
<g><path style="opacity:0.859" fill="#b73238" d="M 186.5,266.5 C 171.995,271.077 156.995,273.077 141.5,272.5C 156.282,270.861 171.282,268.861 186.5,266.5 Z"/></g>
</svg>
