<?xml version="1.0" encoding="UTF-8"?>
<!DOCTYPE svg PUBLIC "-//W3C//DTD SVG 1.1//EN" "http://www.w3.org/Graphics/SVG/1.1/DTD/svg11.dtd">
<svg xmlns="http://www.w3.org/2000/svg" version="1.1" width="300px" height="300px" style="shape-rendering:geometricPrecision; text-rendering:geometricPrecision; image-rendering:optimizeQuality; fill-rule:evenodd; clip-rule:evenodd" xmlns:xlink="http://www.w3.org/1999/xlink">
<g><path style="opacity:1" fill="#411e1e" d="M 139.5,27.5 C 150.018,26.3868 160.685,26.5534 171.5,28C 174.191,28.1558 176.524,28.9891 178.5,30.5C 175.545,29.8413 172.545,29.5079 169.5,29.5C 159.578,27.8898 149.578,27.2232 139.5,27.5 Z"/></g>
<g><path style="opacity:1" fill="#491f20" d="M 138.5,27.5 C 127.403,29.3004 116.403,31.9671 105.5,35.5C 106.058,34.2101 107.058,33.3768 108.5,33C 113.323,32.1698 117.989,30.8365 122.5,29C 127.767,27.809 133.101,27.309 138.5,27.5 Z"/></g>
<g><path style="opacity:1" fill="#e43038" d="M 138.5,27.5 C 138.833,27.5 139.167,27.5 139.5,27.5C 149.578,27.2232 159.578,27.8898 169.5,29.5C 174.366,30.9322 179.366,32.2655 184.5,33.5C 187.877,33.9595 191.211,34.6261 194.5,35.5C 198.429,38.2597 202.762,40.2597 207.5,41.5C 214.129,46.1542 220.796,50.8208 227.5,55.5C 227.833,55.5 228.167,55.5 228.5,55.5C 228.833,57.8333 230.167,59.1667 232.5,59.5C 234.5,62.1667 236.833,64.5 239.5,66.5C 240.08,68.7488 241.413,70.4154 243.5,71.5C 244.167,72.8333 245.167,73.8333 246.5,74.5C 247.338,74.8417 247.672,75.5084 247.5,76.5C 248.604,78.3885 249.937,80.0552 251.5,81.5C 251.427,83.0269 252.094,84.0269 253.5,84.5C 253.75,86.674 254.75,88.3406 256.5,89.5C 257.338,89.8417 257.672,90.5084 257.5,91.5C 259.137,96.1153 261.137,100.449 263.5,104.5C 263.5,104.833 263.5,105.167 263.5,105.5C 264.693,109.307 266.026,112.974 267.5,116.5C 267.5,116.833 267.5,117.167 267.5,117.5C 268.958,124.597 270.291,131.597 271.5,138.5C 272.81,145.599 272.81,152.599 271.5,159.5C 270.267,165.667 269.267,172 268.5,178.5C 266.345,180.617 265.345,183.284 265.5,186.5C 265.122,188.921 264.455,191.254 263.5,193.5C 263.5,193.833 263.5,194.167 263.5,194.5C 261.399,197.248 259.566,200.248 258,203.5C 257.51,204.793 257.343,206.127 257.5,207.5C 252.846,214.129 248.179,220.796 243.5,227.5C 238.5,233.167 233.167,238.5 227.5,243.5C 220.762,248.191 214.095,252.857 207.5,257.5C 206.127,257.343 204.793,257.51 203.5,258C 200.015,259.755 196.681,261.588 193.5,263.5C 188.931,264.976 184.265,266.142 179.5,267C 178.944,267.383 178.611,267.883 178.5,268.5C 172.185,269.313 165.852,269.979 159.5,270.5C 145.342,271.162 131.342,270.162 117.5,267.5C 117.167,267.5 116.833,267.5 116.5,267.5C 112.974,266.026 109.307,264.693 105.5,263.5C 105.167,263.5 104.833,263.5 104.5,263.5C 100.449,261.137 96.1153,259.137 91.5,257.5C 90.5084,257.672 89.8417,257.338 89.5,256.5C 88.3406,254.75 86.674,253.75 84.5,253.5C 84.0269,252.094 83.0269,251.427 81.5,251.5C 81.1667,250.833 80.8333,250.167 80.5,249.5C 77.3782,245.385 73.3782,242.385 68.5,240.5C 68.1583,239.662 67.4916,239.328 66.5,239.5C 64.5,236.833 62.1667,234.5 59.5,232.5C 58.9202,230.251 57.5869,228.585 55.5,227.5C 50.8208,220.796 46.1542,214.129 41.5,207.5C 40.2597,202.762 38.2597,198.429 35.5,194.5C 34.4318,188.869 32.7652,183.535 30.5,178.5C 30.5,177.167 30.5,175.833 30.5,174.5C 30.1916,170.64 29.5249,166.974 28.5,163.5C 28.5,161.833 28.5,160.167 28.5,158.5C 27.8502,144.675 28.8502,131.008 31.5,117.5C 32.9514,113.632 34.2848,109.632 35.5,105.5C 35.5,105.167 35.5,104.833 35.5,104.5C 37.2503,103.341 38.2503,101.674 38.5,99.5C 39.1667,97.5 39.8333,95.5 40.5,93.5C 40.3284,92.5084 40.6618,91.8417 41.5,91.5C 43.588,89.6644 44.9213,87.3311 45.5,84.5C 47.9748,82.2297 49.9748,79.563 51.5,76.5C 53.0627,75.0552 54.396,73.3885 55.5,71.5C 60.5,65.8333 65.8333,60.5 71.5,55.5C 73.3885,54.396 75.0552,53.0627 76.5,51.5C 79.563,49.9748 82.2297,47.9748 84.5,45.5C 86.9538,44.7729 89.2872,43.7729 91.5,42.5C 93.153,42.3404 94.4863,41.6737 95.5,40.5C 96.5137,39.3263 97.847,38.6596 99.5,38.5C 101.674,38.2503 103.341,37.2503 104.5,35.5C 104.833,35.5 105.167,35.5 105.5,35.5C 116.403,31.9671 127.403,29.3004 138.5,27.5 Z M 169.5,40.5 C 173.547,42.2598 177.88,43.2598 182.5,43.5C 182.833,43.5 183.167,43.5 183.5,43.5C 184.287,45.1042 185.62,45.7709 187.5,45.5C 189.848,47.0972 192.514,48.0972 195.5,48.5C 196.911,50.539 198.911,51.539 201.5,51.5C 201.842,52.3382 202.508,52.6716 203.5,52.5C 205.484,55.1639 208.151,56.8305 211.5,57.5C 212.262,59.2624 213.596,60.2624 215.5,60.5C 216.262,62.2624 217.596,63.2624 219.5,63.5C 220.585,65.5869 222.251,66.9202 224.5,67.5C 227.436,72.1053 231.102,76.1053 235.5,79.5C 240.539,87.5255 245.539,95.5255 250.5,103.5C 251.37,108.224 253.037,112.557 255.5,116.5C 255.232,118.099 255.566,119.432 256.5,120.5C 257.35,126.224 258.35,131.891 259.5,137.5C 259.871,149.573 259.204,161.573 257.5,173.5C 256.215,176.589 255.549,179.922 255.5,183.5C 253.081,187.064 251.414,191.064 250.5,195.5C 248.229,197.612 246.896,200.279 246.5,203.5C 245.094,203.973 244.427,204.973 244.5,206.5C 243.11,207.899 242.11,209.566 241.5,211.5C 237.927,215.644 234.594,219.978 231.5,224.5C 229.5,224.5 228.5,225.5 228.5,227.5C 226.167,227.833 224.833,229.167 224.5,231.5C 218.492,235.836 212.492,240.169 206.5,244.5C 204.973,244.427 203.973,245.094 203.5,246.5C 200.279,246.896 197.612,248.229 195.5,250.5C 191.064,251.414 187.064,253.081 183.5,255.5C 179.922,255.549 176.589,256.215 173.5,257.5C 161.569,259.164 149.569,259.831 137.5,259.5C 132.025,258.141 126.358,257.141 120.5,256.5C 119.432,255.566 118.099,255.232 116.5,255.5C 112.557,253.037 108.224,251.37 103.5,250.5C 95.5255,245.539 87.5255,240.539 79.5,235.5C 74.5,229.833 69.1667,224.5 63.5,219.5C 63.2624,217.596 62.2624,216.262 60.5,215.5C 60.2624,213.596 59.2624,212.262 57.5,211.5C 56.8305,208.151 55.1639,205.484 52.5,203.5C 52.6716,202.508 52.3382,201.842 51.5,201.5C 51.539,198.911 50.539,196.911 48.5,195.5C 48.0972,192.514 47.0972,189.848 45.5,187.5C 45.7709,185.62 45.1042,184.287 43.5,183.5C 43.4512,179.922 42.7846,176.589 41.5,173.5C 38.4159,154.687 39.0825,136.02 43.5,117.5C 43.5,116.833 43.5,116.167 43.5,115.5C 46.2184,112.048 47.8851,108.048 48.5,103.5C 61.1667,79.5 79.5,61.1667 103.5,48.5C 108.048,47.8851 112.048,46.2184 115.5,43.5C 116.167,43.5 116.833,43.5 117.5,43.5C 134.643,39.5077 151.976,38.5077 169.5,40.5 Z"/></g>
<g><path style="opacity:1" fill="#94272b" d="M 169.5,29.5 C 172.545,29.5079 175.545,29.8413 178.5,30.5C 180.216,30.6287 181.883,30.962 183.5,31.5C 183.833,32.1667 184.167,32.8333 184.5,33.5C 179.366,32.2655 174.366,30.9322 169.5,29.5 Z"/></g>
<g><path style="opacity:1" fill="#481f20" d="M 183.5,31.5 C 187.644,31.7769 191.311,33.1103 194.5,35.5C 191.211,34.6261 187.877,33.9595 184.5,33.5C 184.167,32.8333 183.833,32.1667 183.5,31.5 Z"/></g>
<g><path style="opacity:1" fill="#652324" d="M 104.5,35.5 C 103.341,37.2503 101.674,38.2503 99.5,38.5C 99.5,38.1667 99.5,37.8333 99.5,37.5C 100.78,36.0687 102.447,35.4021 104.5,35.5 Z"/></g>
<g><path style="opacity:1" fill="#481f20" d="M 194.5,35.5 C 199.443,36.3612 203.776,38.3612 207.5,41.5C 202.762,40.2597 198.429,38.2597 194.5,35.5 Z"/></g>
<g><path style="opacity:1" fill="#341c1c" d="M 99.5,37.5 C 99.5,37.8333 99.5,38.1667 99.5,38.5C 97.847,38.6596 96.5137,39.3263 95.5,40.5C 94.8333,40.5 94.1667,40.5 93.5,40.5C 94.911,38.461 96.911,37.461 99.5,37.5 Z"/></g>
<g><path style="opacity:1" fill="#321b1c" d="M 169.5,39.5 C 169.5,39.8333 169.5,40.1667 169.5,40.5C 151.976,38.5077 134.643,39.5077 117.5,43.5C 118.5,42.8333 119.5,42.1667 120.5,41.5C 136.704,38.3263 153.037,37.6597 169.5,39.5 Z"/></g>
<g><path style="opacity:1" fill="#8c292a" d="M 169.5,39.5 C 174.726,38.5326 179.059,39.8659 182.5,43.5C 177.88,43.2598 173.547,42.2598 169.5,40.5C 169.5,40.1667 169.5,39.8333 169.5,39.5 Z"/></g>
<g><path style="opacity:1" fill="#8a2729" d="M 93.5,40.5 C 94.1667,40.5 94.8333,40.5 95.5,40.5C 94.4863,41.6737 93.153,42.3404 91.5,42.5C 91.5,42.1667 91.5,41.8333 91.5,41.5C 91.8417,40.6618 92.5084,40.3284 93.5,40.5 Z"/></g>
<g><path style="opacity:1" fill="#8a2529" d="M 120.5,41.5 C 119.5,42.1667 118.5,42.8333 117.5,43.5C 116.833,43.5 116.167,43.5 115.5,43.5C 116.635,41.7868 118.302,41.1201 120.5,41.5 Z"/></g>
<g><path style="opacity:1" fill="#401e1e" d="M 91.5,41.5 C 91.5,41.8333 91.5,42.1667 91.5,42.5C 89.2872,43.7729 86.9538,44.7729 84.5,45.5C 86.3356,43.412 88.6689,42.0787 91.5,41.5 Z"/></g>
<g><path style="opacity:1" fill="#381d1d" d="M 183.5,43.5 C 185.153,43.6596 186.486,44.3263 187.5,45.5C 185.62,45.7709 184.287,45.1042 183.5,43.5 Z"/></g>
<g><path style="opacity:1" fill="#4d2020" d="M 115.5,43.5 C 112.048,46.2184 108.048,47.8851 103.5,48.5C 106.912,45.6882 110.912,44.0215 115.5,43.5 Z"/></g>
<g><path style="opacity:1" fill="#4a1f20" d="M 84.5,45.5 C 82.2297,47.9748 79.563,49.9748 76.5,51.5C 78.3727,48.5512 81.0393,46.5512 84.5,45.5 Z"/></g>
<g><path style="opacity:1" fill="#572122" d="M 187.5,45.5 C 190.716,45.3455 193.383,46.3455 195.5,48.5C 192.514,48.0972 189.848,47.0972 187.5,45.5 Z"/></g>
<g><path style="opacity:1" fill="#381c1d" d="M 195.5,48.5 C 197.819,48.9925 199.819,49.9925 201.5,51.5C 198.911,51.539 196.911,50.539 195.5,48.5 Z"/></g>
<g><path style="opacity:1" fill="#461f1f" d="M 207.5,41.5 C 212.272,43.7204 216.938,46.2204 221.5,49C 223.899,50.9802 225.899,53.1469 227.5,55.5C 220.796,50.8208 214.129,46.1542 207.5,41.5 Z"/></g>
<g><path style="opacity:1" fill="#431e1f" d="M 76.5,51.5 C 75.0552,53.0627 73.3885,54.396 71.5,55.5C 72.1293,53.0029 73.796,51.6696 76.5,51.5 Z"/></g>
<g><path style="opacity:1" fill="#441f1f" d="M 161.5,55.5 C 153.487,54.2004 145.487,54.2004 137.5,55.5C 137.962,54.1201 138.962,53.4534 140.5,53.5C 145.8,52.4311 151.134,52.2644 156.5,53C 158.653,53.0995 160.319,53.9328 161.5,55.5 Z"/></g>
<g><path style="opacity:1" fill="#3a1d1e" d="M 203.5,52.5 C 206.511,53.6693 209.178,55.336 211.5,57.5C 208.151,56.8305 205.484,55.1639 203.5,52.5 Z"/></g>
<g><path style="opacity:1" fill="#eb3139" d="M 161.5,55.5 C 164.738,57.1623 168.071,58.829 171.5,60.5C 174.5,64.1667 177.833,67.5 181.5,70.5C 181.157,72.4832 181.824,73.8166 183.5,74.5C 183.5,74.8333 183.5,75.1667 183.5,75.5C 183.932,76.7095 184.599,77.7095 185.5,78.5C 186.857,86.8491 186.69,95.1824 185,103.5C 182.119,109.868 178.286,115.535 173.5,120.5C 171.326,120.75 169.659,121.75 168.5,123.5C 165.56,124.202 162.727,125.202 160,126.5C 159.167,141.178 159.334,155.845 160.5,170.5C 161.107,170.376 161.44,170.043 161.5,169.5C 162.167,169.167 162.833,168.833 163.5,168.5C 168.838,164 174.338,159.667 180,155.5C 178.765,147.285 178.265,138.952 178.5,130.5C 180.584,127.947 181.917,124.947 182.5,121.5C 194.589,104.939 210.589,99.6058 230.5,105.5C 234.809,108.802 239.143,112.136 243.5,115.5C 244.604,117.389 245.937,119.055 247.5,120.5C 248.338,120.842 248.672,121.508 248.5,122.5C 249.462,126.395 250.796,130.061 252.5,133.5C 253.783,138.469 253.783,143.469 252.5,148.5C 250.293,151.728 248.627,155.395 247.5,159.5C 245.684,161.118 244.351,163.118 243.5,165.5C 237.584,170.239 231.251,174.239 224.5,177.5C 224.167,177.5 223.833,177.5 223.5,177.5C 215.713,177.868 208.046,177.202 200.5,175.5C 198.487,173.503 196.154,171.836 193.5,170.5C 192.478,170.855 191.811,171.522 191.5,172.5C 180.59,179.742 170.257,187.742 160.5,196.5C 160.167,196.5 159.833,196.5 159.5,196.5C 158.503,214.993 158.17,233.659 158.5,252.5C 152.5,252.5 146.5,252.5 140.5,252.5C 141.154,233.137 140.487,214.137 138.5,195.5C 137.833,195.5 137.167,195.5 136.5,195.5C 135.415,193.413 133.749,192.08 131.5,191.5C 130.415,189.413 128.749,188.08 126.5,187.5C 125.415,185.413 123.749,184.08 121.5,183.5C 121.027,182.094 120.027,181.427 118.5,181.5C 117.089,179.086 115.089,177.419 112.5,176.5C 111.415,174.413 109.749,173.08 107.5,172.5C 107.53,171.503 107.03,170.836 106,170.5C 102.152,173.006 97.9856,174.839 93.5,176C 86.1742,176.5 78.8409,176.666 71.5,176.5C 70.2196,175.069 68.5529,174.402 66.5,174.5C 66.0269,173.094 65.0269,172.427 63.5,172.5C 63.0269,171.094 62.0269,170.427 60.5,170.5C 59.8333,169.167 58.8333,168.167 57.5,167.5C 57.1436,165.81 56.1436,164.81 54.5,164.5C 54.2503,162.326 53.2503,160.659 51.5,159.5C 50.3732,155.395 48.7066,151.728 46.5,148.5C 44.9657,142.28 45.299,136.28 47.5,130.5C 48.4878,127.924 49.4878,125.257 50.5,122.5C 52.5224,120.469 54.1891,118.135 55.5,115.5C 61.4374,110.198 68.1041,106.198 75.5,103.5C 84.0632,102.957 92.3965,103.957 100.5,106.5C 106.463,110.795 111.796,115.795 116.5,121.5C 116.5,122.167 116.5,122.833 116.5,123.5C 116.846,127.656 118.18,131.323 120.5,134.5C 120.896,141.124 120.23,147.624 118.5,154C 118.836,155.03 119.503,155.53 120.5,155.5C 121.129,157.997 122.796,159.33 125.5,159.5C 127.637,162.973 130.637,165.306 134.5,166.5C 134.81,168.144 135.81,169.144 137.5,169.5C 137.56,170.043 137.893,170.376 138.5,170.5C 139.826,155.672 139.826,141.005 138.5,126.5C 135.673,125.892 133.007,124.892 130.5,123.5C 130.167,123.5 129.833,123.5 129.5,123.5C 128.738,121.738 127.404,120.738 125.5,120.5C 122.136,116.143 118.802,111.809 115.5,107.5C 111.714,96.992 111.714,86.6587 115.5,76.5C 116.89,75.1007 117.89,73.4341 118.5,71.5C 121.098,67.562 124.098,63.8953 127.5,60.5C 130.856,59.3893 133.856,57.7226 136.5,55.5C 136.833,55.5 137.167,55.5 137.5,55.5C 145.487,54.2004 153.487,54.2004 161.5,55.5 Z"/></g>
<g><path style="opacity:1" fill="#562122" d="M 136.5,55.5 C 133.856,57.7226 130.856,59.3893 127.5,60.5C 129.728,57.5505 132.728,55.8838 136.5,55.5 Z"/></g>
<g><path style="opacity:1" fill="#4d2020" d="M 161.5,55.5 C 165.684,55.5919 169.017,57.2586 171.5,60.5C 168.071,58.829 164.738,57.1623 161.5,55.5 Z"/></g>
<g><path style="opacity:1" fill="#421e1f" d="M 228.5,55.5 C 230.773,55.9568 232.106,57.2901 232.5,59.5C 230.167,59.1667 228.833,57.8333 228.5,55.5 Z"/></g>
<g><path style="opacity:1" fill="#421e1e" d="M 211.5,57.5 C 213.404,57.7376 214.738,58.7376 215.5,60.5C 213.596,60.2624 212.262,59.2624 211.5,57.5 Z"/></g>
<g><path style="opacity:1" fill="#371c1d" d="M 232.5,59.5 C 235.833,60.8333 238.167,63.1667 239.5,66.5C 236.833,64.5 234.5,62.1667 232.5,59.5 Z"/></g>
<g><path style="opacity:1" fill="#4b1f20" d="M 171.5,60.5 C 175.833,62.8333 179.167,66.1667 181.5,70.5C 177.833,67.5 174.5,64.1667 171.5,60.5 Z"/></g>
<g><path style="opacity:1" fill="#461e1f" d="M 215.5,60.5 C 217.404,60.7376 218.738,61.7376 219.5,63.5C 217.596,63.2624 216.262,62.2624 215.5,60.5 Z"/></g>
<g><path style="opacity:1" fill="#451f1f" d="M 103.5,48.5 C 79.5,61.1667 61.1667,79.5 48.5,103.5C 49.4006,99.684 50.9006,96.0173 53,92.5C 64.9221,74.2468 80.4221,59.7468 99.5,49C 100.793,48.51 102.127,48.3433 103.5,48.5 Z"/></g>
<g><path style="opacity:1" fill="#4d1f20" d="M 71.5,55.5 C 65.8333,60.5 60.5,65.8333 55.5,71.5C 59.1667,64.5 64.5,59.1667 71.5,55.5 Z"/></g>
<g><path style="opacity:1" fill="#4e2020" d="M 219.5,63.5 C 221.749,64.0798 223.415,65.4131 224.5,67.5C 222.251,66.9202 220.585,65.5869 219.5,63.5 Z"/></g>
<g><path style="opacity:1" fill="#481f1f" d="M 127.5,60.5 C 124.098,63.8953 121.098,67.562 118.5,71.5C 117.833,71.8333 117.167,72.1667 116.5,72.5C 118.777,67.2227 122.444,63.2227 127.5,60.5 Z"/></g>
<g><path style="opacity:1" fill="#602223" d="M 239.5,66.5 C 241.587,67.5846 242.92,69.2512 243.5,71.5C 241.413,70.4154 240.08,68.7488 239.5,66.5 Z"/></g>
<g><path style="opacity:1" fill="#3a1d1d" d="M 224.5,67.5 C 228.898,70.8947 232.564,74.8947 235.5,79.5C 231.102,76.1053 227.436,72.1053 224.5,67.5 Z"/></g>
<g><path style="opacity:1" fill="#391d1d" d="M 243.5,71.5 C 245.5,71.5 246.5,72.5 246.5,74.5C 245.167,73.8333 244.167,72.8333 243.5,71.5 Z"/></g>
<g><path style="opacity:1" fill="#431e1f" d="M 55.5,71.5 C 54.396,73.3885 53.0627,75.0552 51.5,76.5C 51.6696,73.796 53.0029,72.1293 55.5,71.5 Z"/></g>
<g><path style="opacity:1" fill="#93282c" d="M 118.5,71.5 C 117.89,73.4341 116.89,75.1007 115.5,76.5C 115.5,76.1667 115.5,75.8333 115.5,75.5C 115.263,74.209 115.596,73.209 116.5,72.5C 117.167,72.1667 117.833,71.8333 118.5,71.5 Z"/></g>
<g><path style="opacity:1" fill="#732526" d="M 181.5,70.5 C 182.674,71.5137 183.34,72.847 183.5,74.5C 181.824,73.8166 181.157,72.4832 181.5,70.5 Z"/></g>
<g><path style="opacity:1" fill="#2f1b1c" d="M 183.5,75.5 C 185.048,75.8212 185.715,76.8212 185.5,78.5C 184.599,77.7095 183.932,76.7095 183.5,75.5 Z"/></g>
<g><path style="opacity:1" fill="#361c1d" d="M 247.5,76.5 C 249.997,77.1293 251.33,78.796 251.5,81.5C 249.937,80.0552 248.604,78.3885 247.5,76.5 Z"/></g>
<g><path style="opacity:1" fill="#491f20" d="M 51.5,76.5 C 49.9748,79.563 47.9748,82.2297 45.5,84.5C 46.5512,81.0393 48.5512,78.3727 51.5,76.5 Z"/></g>
<g><path style="opacity:1" fill="#421e1e" d="M 251.5,81.5 C 252.906,81.9731 253.573,82.9731 253.5,84.5C 252.094,84.0269 251.427,83.0269 251.5,81.5 Z"/></g>
<g><path style="opacity:1" fill="#3c1d1e" d="M 45.5,84.5 C 44.9213,87.3311 43.588,89.6644 41.5,91.5C 42.0787,88.6689 43.412,86.3356 45.5,84.5 Z"/></g>
<g><path style="opacity:1" fill="#3b1d1e" d="M 253.5,84.5 C 255.25,85.6594 256.25,87.326 256.5,89.5C 254.75,88.3406 253.75,86.674 253.5,84.5 Z"/></g>
<g><path style="opacity:1" fill="#491f20" d="M 115.5,75.5 C 115.5,75.8333 115.5,76.1667 115.5,76.5C 111.714,86.6587 111.714,96.992 115.5,107.5C 113.306,105.779 112.139,103.445 112,100.5C 111.333,94.1667 111.333,87.8333 112,81.5C 112.353,78.8475 113.52,76.8475 115.5,75.5 Z"/></g>
<g><path style="opacity:1" fill="#341c1c" d="M 40.5,93.5 C 39.8333,95.5 39.1667,97.5 38.5,99.5C 38.1667,99.5 37.8333,99.5 37.5,99.5C 37.461,96.911 38.461,94.911 40.5,93.5 Z"/></g>
<g><path style="opacity:1" fill="#4a1f20" d="M 235.5,79.5 C 242.512,86.1787 247.512,94.1787 250.5,103.5C 245.539,95.5255 240.539,87.5255 235.5,79.5 Z"/></g>
<g><path style="opacity:1" fill="#491f20" d="M 257.5,91.5 C 260.639,95.2238 262.639,99.5572 263.5,104.5C 261.137,100.449 259.137,96.1153 257.5,91.5 Z"/></g>
<g><path style="opacity:1" fill="#642324" d="M 37.5,99.5 C 37.8333,99.5 38.1667,99.5 38.5,99.5C 38.2503,101.674 37.2503,103.341 35.5,104.5C 35.4021,102.447 36.0687,100.78 37.5,99.5 Z"/></g>
<g><path style="opacity:1" fill="#461e1f" d="M 75.5,103.5 C 82.7123,102.183 90.0456,102.35 97.5,104C 98.5707,104.852 99.5707,105.685 100.5,106.5C 92.3965,103.957 84.0632,102.957 75.5,103.5 Z"/></g>
<g><path style="opacity:1" fill="#451f1f" d="M 185.5,78.5 C 189.817,92.2363 187.65,104.903 179,116.5C 177.549,118.464 175.716,119.797 173.5,120.5C 178.286,115.535 182.119,109.868 185,103.5C 186.69,95.1824 186.857,86.8491 185.5,78.5 Z"/></g>
<g><path style="opacity:1" fill="#4e2020" d="M 75.5,103.5 C 68.1041,106.198 61.4374,110.198 55.5,115.5C 57.2391,112.59 59.5724,110.09 62.5,108C 66.4442,105.361 70.7775,103.861 75.5,103.5 Z"/></g>
<g><path style="opacity:1" fill="#461e1f" d="M 35.5,105.5 C 34.2848,109.632 32.9514,113.632 31.5,117.5C 31.5467,114.432 32.0467,111.432 33,108.5C 33.3768,107.058 34.2101,106.058 35.5,105.5 Z"/></g>
<g><path style="opacity:1" fill="#481f1f" d="M 100.5,106.5 C 107.992,109.238 113.325,114.238 116.5,121.5C 111.796,115.795 106.463,110.795 100.5,106.5 Z"/></g>
<g><path style="opacity:1" fill="#411e1f" d="M 263.5,105.5 C 266.389,108.491 267.722,112.158 267.5,116.5C 266.026,112.974 264.693,109.307 263.5,105.5 Z"/></g>
<g><path style="opacity:1" fill="#522021" d="M 230.5,105.5 C 236.025,107.367 240.359,110.701 243.5,115.5C 239.143,112.136 234.809,108.802 230.5,105.5 Z"/></g>
<g><path style="opacity:1" fill="#4b1f20" d="M 48.5,103.5 C 47.8851,108.048 46.2184,112.048 43.5,115.5C 44.4279,112.546 45.2612,109.546 46,106.5C 46.3768,105.058 47.2101,104.058 48.5,103.5 Z"/></g>
<g><path style="opacity:1" fill="#481f1f" d="M 250.5,103.5 C 251.79,104.058 252.623,105.058 253,106.5C 254.143,109.777 254.977,113.11 255.5,116.5C 253.037,112.557 251.37,108.224 250.5,103.5 Z"/></g>
<g><path style="opacity:1" fill="#4c1f20" d="M 230.5,105.5 C 210.589,99.6058 194.589,104.939 182.5,121.5C 186.71,113.46 193.043,107.627 201.5,104C 208.777,102.533 216.111,102.199 223.5,103C 226.191,103.156 228.524,103.989 230.5,105.5 Z"/></g>
<g><path style="opacity:1" fill="#341c1c" d="M 243.5,115.5 C 245.997,116.129 247.33,117.796 247.5,120.5C 245.937,119.055 244.604,117.389 243.5,115.5 Z"/></g>
<g><path style="opacity:1" fill="#411e1e" d="M 115.5,107.5 C 118.802,111.809 122.136,116.143 125.5,120.5C 123.629,120.141 122.129,119.141 121,117.5C 118.361,114.55 116.527,111.217 115.5,107.5 Z"/></g>
<g><path style="opacity:1" fill="#96272c" d="M 43.5,115.5 C 43.5,116.167 43.5,116.833 43.5,117.5C 42.8333,118.5 42.1667,119.5 41.5,120.5C 41.1201,118.302 41.7868,116.635 43.5,115.5 Z"/></g>
<g><path style="opacity:1" fill="#491f20" d="M 55.5,115.5 C 54.1891,118.135 52.5224,120.469 50.5,122.5C 51.0693,119.281 52.736,116.948 55.5,115.5 Z"/></g>
<g><path style="opacity:1" fill="#4c1f20" d="M 125.5,120.5 C 127.404,120.738 128.738,121.738 129.5,123.5C 127.596,123.262 126.262,122.262 125.5,120.5 Z"/></g>
<g><path style="opacity:1" fill="#5a2023" d="M 173.5,120.5 C 172.599,122.727 170.933,123.727 168.5,123.5C 169.659,121.75 171.326,120.75 173.5,120.5 Z"/></g>
<g><path style="opacity:1" fill="#612324" d="M 31.5,117.5 C 28.8502,131.008 27.8502,144.675 28.5,158.5C 27.5098,152.355 27.1765,146.022 27.5,139.5C 26.7524,131.646 28.0857,124.312 31.5,117.5 Z"/></g>
<g><path style="opacity:1" fill="#431e1f" d="M 116.5,121.5 C 117.906,121.973 118.573,122.973 118.5,124.5C 117.833,124.167 117.167,123.833 116.5,123.5C 116.5,122.833 116.5,122.167 116.5,121.5 Z"/></g>
<g><path style="opacity:1" fill="#3d1d1e" d="M 50.5,122.5 C 49.4878,125.257 48.4878,127.924 47.5,130.5C 47.0181,127.169 48.0181,124.503 50.5,122.5 Z"/></g>
<g><path style="opacity:1" fill="#451e1f" d="M 248.5,122.5 C 251.19,125.547 252.524,129.213 252.5,133.5C 250.796,130.061 249.462,126.395 248.5,122.5 Z"/></g>
<g><path style="opacity:1" fill="#4e2020" d="M 256.5,120.5 C 257.117,120.611 257.617,120.944 258,121.5C 259.067,126.806 259.901,132.139 260.5,137.5C 260.167,137.5 259.833,137.5 259.5,137.5C 258.35,131.891 257.35,126.224 256.5,120.5 Z"/></g>
<g><path style="opacity:1" fill="#2c1b1b" d="M 118.5,124.5 C 120.074,126.102 120.741,128.102 120.5,130.5C 119.262,128.786 118.595,126.786 118.5,124.5 Z"/></g>
<g><path style="opacity:1" fill="#311c1c" d="M 130.5,123.5 C 133.007,124.892 135.673,125.892 138.5,126.5C 138.829,141.01 138.496,155.343 137.5,169.5C 135.81,169.144 134.81,168.144 134.5,166.5C 135.15,166.804 135.817,167.137 136.5,167.5C 137.833,154.167 137.833,140.833 136.5,127.5C 134.833,126.833 133.167,126.167 131.5,125.5C 130.702,125.043 130.369,124.376 130.5,123.5 Z"/></g>
<g><path style="opacity:1" fill="#6d2225" d="M 168.5,123.5 C 167.015,126.083 164.682,127.416 161.5,127.5C 160.167,141.5 160.167,155.5 161.5,169.5C 161.44,170.043 161.107,170.376 160.5,170.5C 159.334,155.845 159.167,141.178 160,126.5C 162.727,125.202 165.56,124.202 168.5,123.5 Z"/></g>
<g><path style="opacity:1" fill="#2c1b1c" d="M 161.5,127.5 C 160.852,141.209 161.519,154.542 163.5,167.5C 163.5,167.833 163.5,168.167 163.5,168.5C 162.833,168.833 162.167,169.167 161.5,169.5C 160.167,155.5 160.167,141.5 161.5,127.5 Z"/></g>
<g><path style="opacity:1" fill="#361d1d" d="M 182.5,121.5 C 181.917,124.947 180.584,127.947 178.5,130.5C 178.502,126.835 179.835,123.835 182.5,121.5 Z"/></g>
<g><path style="opacity:1" fill="#6d2226" d="M 138.5,126.5 C 139.826,141.005 139.826,155.672 138.5,170.5C 137.893,170.376 137.56,170.043 137.5,169.5C 138.496,155.343 138.829,141.01 138.5,126.5 Z"/></g>
<g><path style="opacity:1" fill="#4d2020" d="M 267.5,117.5 C 270.859,123.977 272.193,130.977 271.5,138.5C 270.291,131.597 268.958,124.597 267.5,117.5 Z"/></g>
<g><path style="opacity:1" fill="#b92b31" d="M 116.5,123.5 C 117.167,123.833 117.833,124.167 118.5,124.5C 118.595,126.786 119.262,128.786 120.5,130.5C 120.5,131.833 120.5,133.167 120.5,134.5C 118.18,131.323 116.846,127.656 116.5,123.5 Z"/></g>
<g><path style="opacity:1" fill="#321c1c" d="M 43.5,117.5 C 39.0825,136.02 38.4159,154.687 41.5,173.5C 40.2616,171.786 39.595,169.786 39.5,167.5C 38.1667,155.5 38.1667,143.5 39.5,131.5C 39.6587,127.709 40.3254,124.042 41.5,120.5C 42.1667,119.5 42.8333,118.5 43.5,117.5 Z"/></g>
<g><path style="opacity:1" fill="#3c1d1e" d="M 27.5,139.5 C 27.1765,146.022 27.5098,152.355 28.5,158.5C 28.5,160.167 28.5,161.833 28.5,163.5C 28.5,166.167 28.5,168.833 28.5,171.5C 26.5681,160.867 26.2347,150.2 27.5,139.5 Z"/></g>
<g><path style="opacity:1" fill="#9e282d" d="M 39.5,131.5 C 38.1667,143.5 38.1667,155.5 39.5,167.5C 38.7784,167.082 38.2784,166.416 38,165.5C 37.3333,154.5 37.3333,143.5 38,132.5C 38.3826,131.944 38.8826,131.611 39.5,131.5 Z"/></g>
<g><path style="opacity:1" fill="#461f1f" d="M 120.5,130.5 C 121.913,133.382 122.579,136.549 122.5,140C 121.896,145.183 121.23,150.349 120.5,155.5C 119.503,155.53 118.836,155.03 118.5,154C 120.23,147.624 120.896,141.124 120.5,134.5C 120.5,133.167 120.5,131.833 120.5,130.5 Z"/></g>
<g><path style="opacity:1" fill="#491f20" d="M 178.5,130.5 C 178.265,138.952 178.765,147.285 180,155.5C 174.338,159.667 168.838,164 163.5,168.5C 163.5,168.167 163.5,167.833 163.5,167.5C 167.852,162.987 172.685,158.987 178,155.5C 177.839,150.508 177.339,145.508 176.5,140.5C 176.55,136.914 177.217,133.58 178.5,130.5 Z"/></g>
<g><path style="opacity:1" fill="#502021" d="M 46.5,148.5 C 48.7066,151.728 50.3732,155.395 51.5,159.5C 48.2451,156.668 46.5784,153.001 46.5,148.5 Z"/></g>
<g><path style="opacity:1" fill="#4f2021" d="M 252.5,148.5 C 252.47,153.022 250.803,156.689 247.5,159.5C 248.627,155.395 250.293,151.728 252.5,148.5 Z"/></g>
<g><path style="opacity:1" fill="#582122" d="M 120.5,155.5 C 122.754,156.124 124.421,157.457 125.5,159.5C 122.796,159.33 121.129,157.997 120.5,155.5 Z"/></g>
<g><path style="opacity:1" fill="#522021" d="M 51.5,159.5 C 53.2503,160.659 54.2503,162.326 54.5,164.5C 52.2729,163.599 51.2729,161.933 51.5,159.5 Z"/></g>
<g><path style="opacity:1" fill="#481f1f" d="M 125.5,159.5 C 129.051,161.111 132.051,163.444 134.5,166.5C 130.637,165.306 127.637,162.973 125.5,159.5 Z"/></g>
<g><path style="opacity:1" fill="#411e1e" d="M 247.5,159.5 C 247.316,162.337 245.982,164.337 243.5,165.5C 244.351,163.118 245.684,161.118 247.5,159.5 Z"/></g>
<g><path style="opacity:1" fill="#2e1b1b" d="M 259.5,137.5 C 259.833,137.5 260.167,137.5 260.5,137.5C 260.666,146.173 260.5,154.84 260,163.5C 259.851,167.133 259.018,170.466 257.5,173.5C 259.204,161.573 259.871,149.573 259.5,137.5 Z"/></g>
<g><path style="opacity:1" fill="#46201f" d="M 54.5,164.5 C 56.1436,164.81 57.1436,165.81 57.5,167.5C 55.8564,167.19 54.8564,166.19 54.5,164.5 Z"/></g>
<g><path style="opacity:1" fill="#2f1b1b" d="M 57.5,167.5 C 58.8333,168.167 59.8333,169.167 60.5,170.5C 58.5,170.5 57.5,169.5 57.5,167.5 Z"/></g>
<g><path style="opacity:1" fill="#3c1d1e" d="M 271.5,159.5 C 271.666,163.514 271.499,167.514 271,171.5C 270.844,174.191 270.011,176.524 268.5,178.5C 269.267,172 270.267,165.667 271.5,159.5 Z"/></g>
<g><path style="opacity:1" fill="#752426" d="M 28.5,163.5 C 29.5249,166.974 30.1916,170.64 30.5,174.5C 29.8333,173.5 29.1667,172.5 28.5,171.5C 28.5,168.833 28.5,166.167 28.5,163.5 Z"/></g>
<g><path style="opacity:1" fill="#451f1f" d="M 243.5,165.5 C 243.141,167.371 242.141,168.871 240.5,170C 235.798,173.851 230.465,176.351 224.5,177.5C 231.251,174.239 237.584,170.239 243.5,165.5 Z"/></g>
<g><path style="opacity:1" fill="#401d1e" d="M 60.5,170.5 C 62.0269,170.427 63.0269,171.094 63.5,172.5C 61.9731,172.573 60.9731,171.906 60.5,170.5 Z"/></g>
<g><path style="opacity:1" fill="#5c2223" d="M 200.5,175.5 C 197.682,174.03 194.682,173.03 191.5,172.5C 191.811,171.522 192.478,170.855 193.5,170.5C 196.154,171.836 198.487,173.503 200.5,175.5 Z"/></g>
<g><path style="opacity:1" fill="#3b1d1d" d="M 63.5,172.5 C 65.0269,172.427 66.0269,173.094 66.5,174.5C 64.9731,174.573 63.9731,173.906 63.5,172.5 Z"/></g>
<g><path style="opacity:1" fill="#4d1f20" d="M 107.5,172.5 C 109.749,173.08 111.415,174.413 112.5,176.5C 110.251,175.92 108.585,174.587 107.5,172.5 Z"/></g>
<g><path style="opacity:1" fill="#321b1c" d="M 66.5,174.5 C 68.5529,174.402 70.2196,175.069 71.5,176.5C 69.4471,176.598 67.7804,175.931 66.5,174.5 Z"/></g>
<g><path style="opacity:1" fill="#672324" d="M 107.5,172.5 C 102.735,174.593 97.7347,176.426 92.5,178C 86.8333,178.667 81.1667,178.667 75.5,178C 73.9419,177.79 72.6085,177.29 71.5,176.5C 78.8409,176.666 86.1742,176.5 93.5,176C 97.9856,174.839 102.152,173.006 106,170.5C 107.03,170.836 107.53,171.503 107.5,172.5 Z"/></g>
<g><path style="opacity:1" fill="#3f1e1e" d="M 191.5,172.5 C 181.899,180.582 172.066,188.582 162,196.5C 161.832,216.004 161.332,235.338 160.5,254.5C 160.5,235.167 160.5,215.833 160.5,196.5C 170.257,187.742 180.59,179.742 191.5,172.5 Z"/></g>
<g><path style="opacity:1" fill="#331c1c" d="M 28.5,171.5 C 29.1667,172.5 29.8333,173.5 30.5,174.5C 30.5,175.833 30.5,177.167 30.5,178.5C 28.8372,176.562 28.1706,174.228 28.5,171.5 Z"/></g>
<g><path style="opacity:1" fill="#531f21" d="M 200.5,175.5 C 208.046,177.202 215.713,177.868 223.5,177.5C 218.015,178.652 212.349,178.818 206.5,178C 204.277,177.434 202.277,176.6 200.5,175.5 Z"/></g>
<g><path style="opacity:1" fill="#441e1f" d="M 112.5,176.5 C 115.089,177.419 117.089,179.086 118.5,181.5C 115.911,180.581 113.911,178.914 112.5,176.5 Z"/></g>
<g><path style="opacity:1" fill="#862629" d="M 268.5,178.5 C 268.371,180.216 268.038,181.883 267.5,183.5C 266.833,184.5 266.167,185.5 265.5,186.5C 265.345,183.284 266.345,180.617 268.5,178.5 Z"/></g>
<g><path style="opacity:1" fill="#652324" d="M 41.5,173.5 C 42.7846,176.589 43.4512,179.922 43.5,183.5C 42.7784,183.082 42.2784,182.416 42,181.5C 41.5026,178.854 41.3359,176.187 41.5,173.5 Z"/></g>
<g><path style="opacity:1" fill="#491f20" d="M 118.5,181.5 C 120.027,181.427 121.027,182.094 121.5,183.5C 119.973,183.573 118.973,182.906 118.5,181.5 Z"/></g>
<g><path style="opacity:1" fill="#602223" d="M 257.5,173.5 C 257.664,176.187 257.497,178.854 257,181.5C 256.722,182.416 256.222,183.082 255.5,183.5C 255.549,179.922 256.215,176.589 257.5,173.5 Z"/></g>
<g><path style="opacity:1" fill="#552022" d="M 121.5,183.5 C 123.749,184.08 125.415,185.413 126.5,187.5C 124.251,186.92 122.585,185.587 121.5,183.5 Z"/></g>
<g><path style="opacity:1" fill="#391d1d" d="M 43.5,183.5 C 45.1042,184.287 45.7709,185.62 45.5,187.5C 44.3263,186.486 43.6596,185.153 43.5,183.5 Z"/></g>
<g><path style="opacity:1" fill="#351c1d" d="M 267.5,183.5 C 267.514,187.475 266.181,190.808 263.5,193.5C 264.455,191.254 265.122,188.921 265.5,186.5C 266.167,185.5 266.833,184.5 267.5,183.5 Z"/></g>
<g><path style="opacity:1" fill="#471f1f" d="M 126.5,187.5 C 128.749,188.08 130.415,189.413 131.5,191.5C 129.251,190.92 127.585,189.587 126.5,187.5 Z"/></g>
<g><path style="opacity:1" fill="#582122" d="M 255.5,183.5 C 254.671,186.815 253.838,190.148 253,193.5C 252.292,194.381 251.458,195.047 250.5,195.5C 251.414,191.064 253.081,187.064 255.5,183.5 Z"/></g>
<g><path style="opacity:1" fill="#491f20" d="M 30.5,178.5 C 32.7652,183.535 34.4318,188.869 35.5,194.5C 32.6168,189.659 30.9501,184.326 30.5,178.5 Z"/></g>
<g><path style="opacity:1" fill="#572122" d="M 45.5,187.5 C 47.0972,189.848 48.0972,192.514 48.5,195.5C 46.3455,193.383 45.3455,190.716 45.5,187.5 Z"/></g>
<g><path style="opacity:1" fill="#421e1e" d="M 131.5,191.5 C 133.749,192.08 135.415,193.413 136.5,195.5C 134.251,194.92 132.585,193.587 131.5,191.5 Z"/></g>
<g><path style="opacity:1" fill="#481f1f" d="M 35.5,194.5 C 38.2597,198.429 40.2597,202.762 41.5,207.5C 38.3612,203.776 36.3612,199.443 35.5,194.5 Z"/></g>
<g><path style="opacity:1" fill="#381c1d" d="M 48.5,195.5 C 50.539,196.911 51.539,198.911 51.5,201.5C 49.9925,199.819 48.9925,197.819 48.5,195.5 Z"/></g>
<g><path style="opacity:1" fill="#2b1b1b" d="M 136.5,195.5 C 137.167,195.5 137.833,195.5 138.5,195.5C 138.5,195.833 138.5,196.167 138.5,196.5C 138.5,215.833 138.5,235.167 138.5,254.5C 137.822,234.931 137.155,215.265 136.5,195.5 Z"/></g>
<g><path style="opacity:1" fill="#dc2f36" d="M 138.5,196.5 C 138.5,196.167 138.5,195.833 138.5,195.5C 140.487,214.137 141.154,233.137 140.5,252.5C 146.5,252.5 152.5,252.5 158.5,252.5C 158.17,233.659 158.503,214.993 159.5,196.5C 159.5,215.5 159.5,234.5 159.5,253.5C 152.833,253.5 146.167,253.5 139.5,253.5C 139.83,234.326 139.497,215.326 138.5,196.5 Z"/></g>
<g><path style="opacity:1" fill="#6a2225" d="M 138.5,196.5 C 139.497,215.326 139.83,234.326 139.5,253.5C 146.167,253.5 152.833,253.5 159.5,253.5C 159.5,234.5 159.5,215.5 159.5,196.5C 159.833,196.5 160.167,196.5 160.5,196.5C 160.5,215.833 160.5,235.167 160.5,254.5C 153.167,255.833 145.833,255.833 138.5,254.5C 138.5,235.167 138.5,215.833 138.5,196.5 Z"/></g>
<g><path style="opacity:1" fill="#3c1d1e" d="M 250.5,195.5 C 249.721,198.545 248.387,201.211 246.5,203.5C 246.896,200.279 248.229,197.612 250.5,195.5 Z"/></g>
<g><path style="opacity:1" fill="#522121" d="M 263.5,194.5 C 262.639,199.443 260.639,203.776 257.5,207.5C 257.343,206.127 257.51,204.793 258,203.5C 259.566,200.248 261.399,197.248 263.5,194.5 Z"/></g>
<g><path style="opacity:1" fill="#401d1e" d="M 246.5,203.5 C 246.573,205.027 245.906,206.027 244.5,206.5C 244.427,204.973 245.094,203.973 246.5,203.5 Z"/></g>
<g><path style="opacity:1" fill="#3a1d1d" d="M 52.5,203.5 C 55.1639,205.484 56.8305,208.151 57.5,211.5C 55.336,209.178 53.6693,206.511 52.5,203.5 Z"/></g>
<g><path style="opacity:1" fill="#501f21" d="M 244.5,206.5 C 244.727,208.933 243.727,210.599 241.5,211.5C 242.11,209.566 243.11,207.899 244.5,206.5 Z"/></g>
<g><path style="opacity:1" fill="#421e1e" d="M 57.5,211.5 C 59.2624,212.262 60.2624,213.596 60.5,215.5C 58.7376,214.738 57.7376,213.404 57.5,211.5 Z"/></g>
<g><path style="opacity:1" fill="#461e1f" d="M 60.5,215.5 C 62.2624,216.262 63.2624,217.596 63.5,219.5C 61.7376,218.738 60.7376,217.404 60.5,215.5 Z"/></g>
<g><path style="opacity:1" fill="#411e1e" d="M 41.5,207.5 C 46.1542,214.129 50.8208,220.796 55.5,227.5C 53.1469,225.899 50.9802,223.899 49,221.5C 46.2204,216.938 43.7204,212.272 41.5,207.5 Z"/></g>
<g><path style="opacity:1" fill="#451f1f" d="M 257.5,207.5 C 255.28,212.272 252.78,216.938 250,221.5C 248.02,223.899 245.853,225.899 243.5,227.5C 248.179,220.796 252.846,214.129 257.5,207.5 Z"/></g>
<g><path style="opacity:1" fill="#4e2020" d="M 241.5,211.5 C 239.375,216.743 236.042,221.077 231.5,224.5C 234.594,219.978 237.927,215.644 241.5,211.5 Z"/></g>
<g><path style="opacity:1" fill="#3f1e1e" d="M 63.5,219.5 C 69.1667,224.5 74.5,229.833 79.5,235.5C 73.1667,231.167 67.8333,225.833 63.5,219.5 Z"/></g>
<g><path style="opacity:1" fill="#3a1c1d" d="M 231.5,224.5 C 230.833,225.833 229.833,226.833 228.5,227.5C 228.5,225.5 229.5,224.5 231.5,224.5 Z"/></g>
<g><path style="opacity:1" fill="#4f2020" d="M 55.5,227.5 C 57.5869,228.585 58.9202,230.251 59.5,232.5C 57.0646,231.73 55.7313,230.063 55.5,227.5 Z"/></g>
<g><path style="opacity:1" fill="#391c1d" d="M 228.5,227.5 C 227.5,229.167 226.167,230.5 224.5,231.5C 224.833,229.167 226.167,227.833 228.5,227.5 Z"/></g>
<g><path style="opacity:1" fill="#371c1d" d="M 59.5,232.5 C 62.1667,234.5 64.5,236.833 66.5,239.5C 63.1667,238.167 60.8333,235.833 59.5,232.5 Z"/></g>
<g><path style="opacity:1" fill="#532021" d="M 224.5,231.5 C 219.522,237.316 213.522,241.649 206.5,244.5C 212.492,240.169 218.492,235.836 224.5,231.5 Z"/></g>
<g><path style="opacity:1" fill="#3f1e1e" d="M 243.5,227.5 C 239.833,234.5 234.5,239.833 227.5,243.5C 233.167,238.5 238.5,233.167 243.5,227.5 Z"/></g>
<g><path style="opacity:1" fill="#3f1e1e" d="M 66.5,239.5 C 67.4916,239.328 68.1583,239.662 68.5,240.5C 68.8333,241.167 69.1667,241.833 69.5,242.5C 67.8564,242.19 66.8564,241.19 66.5,239.5 Z"/></g>
<g><path style="opacity:1" fill="#491f20" d="M 79.5,235.5 C 87.5255,240.539 95.5255,245.539 103.5,250.5C 94.1905,247.516 86.1905,242.516 79.5,235.5 Z"/></g>
<g><path style="opacity:1" fill="#391d1d" d="M 71.5,243.5 C 72.8333,244.167 73.8333,245.167 74.5,246.5C 72.5,246.5 71.5,245.5 71.5,243.5 Z"/></g>
<g><path style="opacity:1" fill="#4c1f20" d="M 206.5,244.5 C 206.027,245.906 205.027,246.573 203.5,246.5C 203.973,245.094 204.973,244.427 206.5,244.5 Z"/></g>
<g><path style="opacity:1" fill="#b82c31" d="M 68.5,240.5 C 73.3782,242.385 77.3782,245.385 80.5,249.5C 78.9382,249.267 77.6049,248.6 76.5,247.5C 75.5084,247.672 74.8417,247.338 74.5,246.5C 73.8333,245.167 72.8333,244.167 71.5,243.5C 70.5084,243.672 69.8417,243.338 69.5,242.5C 69.1667,241.833 68.8333,241.167 68.5,240.5 Z"/></g>
<g><path style="opacity:1" fill="#3d1d1e" d="M 203.5,246.5 C 201.211,248.387 198.545,249.721 195.5,250.5C 197.612,248.229 200.279,246.896 203.5,246.5 Z"/></g>
<g><path style="opacity:1" fill="#361c1d" d="M 76.5,247.5 C 77.6049,248.6 78.9382,249.267 80.5,249.5C 80.8333,250.167 81.1667,250.833 81.5,251.5C 78.796,251.33 77.1293,249.997 76.5,247.5 Z"/></g>
<g><path style="opacity:1" fill="#451f1f" d="M 227.5,243.5 C 225.899,245.853 223.899,248.02 221.5,250C 216.938,252.78 212.272,255.28 207.5,257.5C 214.095,252.857 220.762,248.191 227.5,243.5 Z"/></g>
<g><path style="opacity:1" fill="#431e1e" d="M 81.5,251.5 C 83.0269,251.427 84.0269,252.094 84.5,253.5C 82.9731,253.573 81.9731,252.906 81.5,251.5 Z"/></g>
<g><path style="opacity:1" fill="#471f1f" d="M 103.5,250.5 C 108.224,251.37 112.557,253.037 116.5,255.5C 113.11,254.977 109.777,254.143 106.5,253C 105.058,252.623 104.058,251.79 103.5,250.5 Z"/></g>
<g><path style="opacity:1" fill="#552022" d="M 195.5,250.5 C 192.048,253.218 188.048,254.885 183.5,255.5C 187.064,253.081 191.064,251.414 195.5,250.5 Z"/></g>
<g><path style="opacity:1" fill="#3b1d1d" d="M 84.5,253.5 C 86.674,253.75 88.3406,254.75 89.5,256.5C 87.326,256.25 85.6594,255.25 84.5,253.5 Z"/></g>
<g><path style="opacity:1" fill="#532021" d="M 183.5,255.5 C 181.698,256.458 179.698,257.125 177.5,257.5C 176.167,257.5 174.833,257.5 173.5,257.5C 176.589,256.215 179.922,255.549 183.5,255.5 Z"/></g>
<g><path style="opacity:1" fill="#4c2020" d="M 120.5,256.5 C 126.358,257.141 132.025,258.141 137.5,259.5C 137.5,259.833 137.5,260.167 137.5,260.5C 132.139,259.901 126.806,259.067 121.5,258C 120.944,257.617 120.611,257.117 120.5,256.5 Z"/></g>
<g><path style="opacity:1" fill="#a8292e" d="M 173.5,257.5 C 174.833,257.5 176.167,257.5 177.5,257.5C 175.485,258.924 173.152,259.59 170.5,259.5C 171.5,258.833 172.5,258.167 173.5,257.5 Z"/></g>
<g><path style="opacity:1" fill="#2b1a1b" d="M 173.5,257.5 C 172.5,258.167 171.5,258.833 170.5,259.5C 159.521,260.32 148.521,260.653 137.5,260.5C 137.5,260.167 137.5,259.833 137.5,259.5C 149.569,259.831 161.569,259.164 173.5,257.5 Z"/></g>
<g><path style="opacity:1" fill="#4f2020" d="M 207.5,257.5 C 203.49,260.843 198.824,262.843 193.5,263.5C 196.681,261.588 200.015,259.755 203.5,258C 204.793,257.51 206.127,257.343 207.5,257.5 Z"/></g>
<g><path style="opacity:1" fill="#491f20" d="M 91.5,257.5 C 96.1153,259.137 100.449,261.137 104.5,263.5C 99.5572,262.639 95.2238,260.639 91.5,257.5 Z"/></g>
<g><path style="opacity:1" fill="#411e1f" d="M 105.5,263.5 C 109.307,264.693 112.974,266.026 116.5,267.5C 112.158,267.722 108.491,266.389 105.5,263.5 Z"/></g>
<g><path style="opacity:1" fill="#4d2020" d="M 193.5,263.5 C 192.942,264.79 191.942,265.623 190.5,266C 186.56,267.156 182.56,267.99 178.5,268.5C 178.611,267.883 178.944,267.383 179.5,267C 184.265,266.142 188.931,264.976 193.5,263.5 Z"/></g>
<g><path style="opacity:1" fill="#5d2223" d="M 117.5,267.5 C 131.342,270.162 145.342,271.162 159.5,270.5C 159.5,270.833 159.5,271.167 159.5,271.5C 148.982,272.613 138.315,272.447 127.5,271C 123.782,270.627 120.449,269.461 117.5,267.5 Z"/></g>
<g><path style="opacity:1" fill="#401d1e" d="M 178.5,268.5 C 176.524,270.011 174.191,270.844 171.5,271C 167.514,271.499 163.514,271.666 159.5,271.5C 159.5,271.167 159.5,270.833 159.5,270.5C 165.852,269.979 172.185,269.313 178.5,268.5 Z"/></g>
</svg>
